<svg xmlns="http://www.w3.org/2000/svg" width="36" height="36" viewBox="0 0 36 36"><defs><style>.a{fill:rgba(249,172,255,0);}</style></defs><rect class="a" width="36" height="36"/><path d="M37.3,26.574,24.458,39.418a2.015,2.015,0,0,1-2.844,0A.836.836,0,1,1,22.8,38.236a.341.341,0,0,0,.479,0L36.12,25.391a.341.341,0,0,0,0-.479L23.275,12.067a.341.341,0,0,0-.479,0,.836.836,0,0,1-1.182-1.182,2.01,2.01,0,0,1,2.844,0L37.3,23.729a2.011,2.011,0,0,1,0,2.844Z" transform="translate(-1.892 -7.15)"/><path d="M-3174.142,530.691a2,2,0,0,1-1.422-.588l-12.846-12.845a2,2,0,0,1-.59-1.427,1.988,1.988,0,0,1,.59-1.417l12.845-12.845a2.019,2.019,0,0,1,1.422-.57,2.016,2.016,0,0,1,1.422.57l12.847,12.845a2.017,2.017,0,0,1,0,2.844L-3172.72,530.1A2,2,0,0,1-3174.142,530.691Zm0-26.312a1.556,1.556,0,0,0-1.1.439l-9.913,9.913a1.535,1.535,0,0,0-.455,1.094,1.544,1.544,0,0,0,.455,1.1l9.913,9.912a1.539,1.539,0,0,0,1.1.454,1.542,1.542,0,0,0,1.1-.454l9.912-9.912a1.557,1.557,0,0,0,0-2.2l-9.914-9.913A1.556,1.556,0,0,0-3174.144,504.38Z" transform="translate(3189 -497.836)"/><path d="M22.67,25.087a.838.838,0,0,1-.838.838H17.584v4.248a.838.838,0,0,1-1.675,0V25.926H11.666a.838.838,0,0,1,0-1.675h4.248V20.006a.838.838,0,1,1,1.675,0v4.248h4.248a.835.835,0,0,1,.836.833Z" transform="translate(-1.894 -7.09)"/></svg>