<svg xmlns="http://www.w3.org/2000/svg" width="36" height="36" viewBox="0 0 36 36"><defs><style>.a{fill:rgba(249,172,255,0);}</style></defs><rect class="a" width="36" height="36"/><path d="M30.64,34.32H22.51a1.644,1.644,0,0,1-1.53-1.72V22.37H15.02V32.79a1.63,1.63,0,0,1-1.72,1.52H5.25a1.633,1.633,0,0,1-1.13-.55,1.593,1.593,0,0,1-.4-1.18V18.38H2.73a1.8,1.8,0,0,1-1.56-.95,1.717,1.717,0,0,1,.31-1.96L15.7,1.41a3.455,3.455,0,0,1,4.55-.04L34.37,15.49a1.554,1.554,0,0,1,.51,1.88h0A1.723,1.723,0,0,1,33.1,18.4h-.83V32.89a1.631,1.631,0,0,1-1.63,1.44Zm-7.67-1.69v0Zm-17.25.01Zm7.29-12.27h9.96V32.32h7.29V16.39h2.17L18.88,2.83a1.41,1.41,0,0,0-1.82.05L3.42,16.39h2.3V32.32h7.29V20.37ZM30.59,32.32Zm-17.26,0ZM2.72,16.39Z" transform="translate(0.008 0.465)"/></svg>