<svg xmlns="http://www.w3.org/2000/svg" width="36" height="36" viewBox="0 0 36 36"><defs><style>.a{fill:rgba(249,172,255,0);}</style></defs><rect class="a" width="36" height="36"/><g transform="translate(-85.303 -2085.303)"><path d="M15.833,22.1h-1.5V9.863a1.5,1.5,0,1,0-3,0V22.1h-1.5a1.531,1.531,0,0,0,0,3.061h1.5V37.407a1.5,1.5,0,1,0,3,0V25.165h1.5a1.531,1.531,0,0,0,0-3.061Z" transform="translate(79.668 2079.668)"/><path d="M45,29.756H43.5V9.863a1.5,1.5,0,1,0-3,0V29.756H39a1.53,1.53,0,0,0,0,3.06h1.5v4.591h0a1.5,1.5,0,1,0,3,0V32.816H45a1.53,1.53,0,0,0,0-3.06Z" transform="translate(61.303 2079.668)"/><path d="M74.167,14.453h-1.5V9.863a1.5,1.5,0,1,0-3,0v4.591h-1.5a1.53,1.53,0,0,0,0,3.06h1.5V37.407a1.5,1.5,0,1,0,3,0V17.513h1.5a1.53,1.53,0,0,0,0-3.06Z" transform="translate(42.938 2079.668)"/></g></svg>