<svg xmlns="http://www.w3.org/2000/svg" width="36" height="36.001" viewBox="0 0 36 36.001"><defs><style>.a{fill:rgba(249,172,255,0);}</style></defs><rect class="a" width="36" height="36"/><path d="M-3184,537a5.006,5.006,0,0,1-5-5V506a5.005,5.005,0,0,1,5-5h26a5.006,5.006,0,0,1,5,5v26a5.007,5.007,0,0,1-5,5Zm-1-30v24a2,2,0,0,0,2,2h24a2,2,0,0,0,2-2V507a2,2,0,0,0-2-2h-24A2,2,0,0,0-3185,507Zm14.614,19.066h-2.363l.431-1.6h1.629c0-.32-.016-.464-.016-.639s0-.319.016-.639h-2.06l.431-1.6h1.932a7.116,7.116,0,0,1,6.788-4.952,7,7,0,0,1,3.307.815l-.544,2.045a5.042,5.042,0,0,0-2.747-.815,5.031,5.031,0,0,0-4.616,2.907h6.8l-.431,1.6h-6.82c-.016.32-.031.464-.031.639s.015.32.031.639h6.484l-.431,1.6h-5.606a5.216,5.216,0,0,0,4.552,2.906,4.71,4.71,0,0,0,3.194-1.213V530.2a6.271,6.271,0,0,1-3.194.8A7.042,7.042,0,0,1-3170.386,526.065Zm-8.448-5.516v-2.767h-2.846a.835.835,0,0,1-.834-.836.835.835,0,0,1,.834-.836h2.846v-1.745h-2.846a.835.835,0,0,1-.834-.836.835.835,0,0,1,.834-.836h2.846v-.005l-4.218-5.017a.837.837,0,0,1,.1-1.178.833.833,0,0,1,1.175.1l3.777,4.493,3.777-4.493a.833.833,0,0,1,1.175-.1.837.837,0,0,1,.1,1.178l-4.218,5.017v.005h2.846a.835.835,0,0,1,.834.836.835.835,0,0,1-.834.836h-2.846v1.745h2.846a.835.835,0,0,1,.834.836.835.835,0,0,1-.834.836h-2.846v2.767a.835.835,0,0,1-.834.836A.835.835,0,0,1-3178.833,520.549Z" transform="translate(3189 -501)"/></svg>