<svg xmlns="http://www.w3.org/2000/svg" width="36" height="36" viewBox="0 0 36 36"><defs><style>.a{fill:rgba(249,172,255,0);}</style></defs><rect class="a" width="36" height="36"/><path d="M31.023,3.316A28.2,28.2,0,0,1,40,4.634c2.627.922,4.249,2.28,4.249,3.859,0,.061,0,.122-.008.183l0,19.23h0c0,1.579-1.624,2.938-4.249,3.859a28.163,28.163,0,0,1-8.981,1.318,28.2,28.2,0,0,1-8.981-1.318c-2.627-.922-4.249-2.28-4.249-3.859h0l0-19.23c0-.06-.008-.122-.008-.183,0-1.579,1.624-2.938,4.249-3.859a28.163,28.163,0,0,1,8.981-1.318ZM41.736,25.155a21.518,21.518,0,0,1-3.437,1,36.079,36.079,0,0,1-7.275.7,36.156,36.156,0,0,1-7.275-.7,21.551,21.551,0,0,1-3.437-1v2.752h0c0,.74,1.056,1.48,2.761,2.079a24.994,24.994,0,0,0,7.948,1.142,25,25,0,0,0,7.948-1.142c1.707-.6,2.761-1.339,2.761-2.079h0V25.155ZM20.311,22.9A15.492,15.492,0,0,0,24.4,24.264a32.951,32.951,0,0,0,6.627.634,32.962,32.962,0,0,0,6.627-.634A15.517,15.517,0,0,0,41.738,22.9V18.59a21.518,21.518,0,0,1-3.437,1,36.079,36.079,0,0,1-7.275.7,36.156,36.156,0,0,1-7.275-.7,21.65,21.65,0,0,1-3.437-1V22.9Zm0-6.566A15.472,15.472,0,0,0,24.4,17.7a32.951,32.951,0,0,0,6.627.634,32.962,32.962,0,0,0,6.627-.634,15.517,15.517,0,0,0,4.087-1.366l0-4.724a12.477,12.477,0,0,1-1.73.747,28.163,28.163,0,0,1-8.981,1.318,28.2,28.2,0,0,1-8.981-1.318,12.306,12.306,0,0,1-1.73-.747l0,4.724Zm18.66-9.915a24.994,24.994,0,0,0-7.948-1.142,25,25,0,0,0-7.948,1.142c-1.707.6-2.761,1.339-2.761,2.079s1.056,1.48,2.761,2.079a24.994,24.994,0,0,0,7.948,1.142,25,25,0,0,0,7.948-1.142c1.707-.6,2.761-1.339,2.761-2.079S40.677,7.016,38.972,6.417Z" transform="translate(-13.023 -0.2)"/></svg>