<svg xmlns="http://www.w3.org/2000/svg" width="36" height="36" viewBox="0 0 36 36"><defs><style>.a{fill:rgba(249,172,255,0);}</style></defs><rect class="a" width="36" height="36"/><path d="M19.292,36h-1.96a2,2,0,1,1,0-4H28.667A3.334,3.334,0,0,0,32,28.666V7.333A3.334,3.334,0,0,0,28.667,4H7.334A3.333,3.333,0,0,0,4,7.333V27.559a.668.668,0,0,0,1.174.474L18.509,14.666H14.627v.007H12.67a2,2,0,0,1,0-4.007H23.333a2,2,0,0,1,2,2V21.42h.007v1.957a2,2,0,1,1-4.007,0V17.492L8,30.892a4.668,4.668,0,0,1-8-3.334V7.333A7.334,7.334,0,0,1,7.334,0H28.667A7.334,7.334,0,0,1,36,7.333V28.666A7.334,7.334,0,0,1,28.667,36Z" transform="translate(0)"/></svg>