<svg xmlns="http://www.w3.org/2000/svg" width="36" height="36" viewBox="0 0 36 36"><defs><style>.a{fill:rgba(249,172,255,0);}</style></defs><rect class="a" width="36" height="36"/><path d="M35.049,56.08H21.684a5.126,5.126,0,0,1-5.122-5.122v-18.9a5.126,5.126,0,0,1,5.122-5.122H35.049a5.126,5.126,0,0,1,5.122,5.122v18.9a5.126,5.126,0,0,1-5.122,5.122Zm-13.365-26.2a2.173,2.173,0,0,0-2.178,2.178v18.9a2.173,2.173,0,0,0,2.178,2.178H35.049a2.173,2.173,0,0,0,2.178-2.178v-18.9a2.173,2.173,0,0,0-2.178-2.178Z" transform="translate(-13.562 -20.08)"/><path d="M53,41.851a1.458,1.458,0,0,1-1.472-1.472V23.041A5.528,5.528,0,0,0,46,17.507H34.222a1.472,1.472,0,1,1,0-2.944H46a8.48,8.48,0,0,1,8.478,8.478V40.38A1.476,1.476,0,0,1,53,41.851Z" transform="translate(-21.262 -14.563)"/></svg>