<svg xmlns="http://www.w3.org/2000/svg" width="36" height="36" viewBox="0 0 36 36"><defs><style>.a{fill:rgba(249,172,255,0);}</style></defs><rect class="a" width="36" height="36"/><path d="M-3183.728,531.728A17.883,17.883,0,0,1-3189,519a17.882,17.882,0,0,1,5.272-12.729A17.881,17.881,0,0,1-3171,501a17.884,17.884,0,0,1,12.728,5.271A17.885,17.885,0,0,1-3153,519a17.884,17.884,0,0,1-5.272,12.728A17.885,17.885,0,0,1-3171,537,17.883,17.883,0,0,1-3183.728,531.728ZM-3185,519a14.016,14.016,0,0,0,14,14,14.015,14.015,0,0,0,14-14,14.016,14.016,0,0,0-14-14A14.016,14.016,0,0,0-3185,519Zm8.5,2a1.5,1.5,0,0,1-1.5-1.5,1.5,1.5,0,0,1,1.5-1.5h12a1.5,1.5,0,0,1,1.5,1.5,1.5,1.5,0,0,1-1.5,1.5Z" transform="translate(3189 -501)"/></svg>