<svg xmlns="http://www.w3.org/2000/svg" width="36" height="36" viewBox="0 0 36 36"><defs><style>.a{fill:rgba(249,172,255,0);}</style></defs><g transform="translate(0 0)"><rect class="a" width="36" height="36"/></g><path d="M18.2,30.8h3.6V27.2H18.2ZM20,2A18,18,0,1,0,38,20,18.007,18.007,0,0,0,20,2Zm0,32.4A14.4,14.4,0,1,1,34.4,20,14.419,14.419,0,0,1,20,34.4ZM20,9.2a7.2,7.2,0,0,0-7.2,7.2h3.6a3.6,3.6,0,1,1,7.2,0c0,3.6-5.4,3.15-5.4,9h3.6c0-4.05,5.4-4.5,5.4-9A7.2,7.2,0,0,0,20,9.2Z" transform="translate(-2 -2)"/></svg>