<svg xmlns="http://www.w3.org/2000/svg" width="36" height="36" viewBox="0 0 36 36"><defs><style>.a{fill:rgba(249,172,255,0);}</style></defs><rect class="a" width="36" height="36"/><path d="M26.726,4H9.079A3.083,3.083,0,0,0,6,7.079,2.031,2.031,0,0,0,6.632,8.54l12.2,11.251L6.632,31.042A2.031,2.031,0,0,0,6,32.5a3.083,3.083,0,0,0,3.079,3.079H26.726a2.961,2.961,0,0,0,0-5.922H15.869l7.086-7.086a3.955,3.955,0,0,0,0-5.586L15.869,9.922H26.726a2.961,2.961,0,0,0,0-5.922Z" transform="translate(0.157 -1.791)"/></svg>