<svg xmlns="http://www.w3.org/2000/svg" width="36" height="36" viewBox="0 0 36 36"><defs><style>.a{fill:rgba(249,172,255,0);}</style></defs><rect class="a" width="36" height="36"/><g transform="translate(0 2)"><path d="M16.6,39.124a7.115,7.115,0,0,0,.015-14.23A7.474,7.474,0,0,0,9.9,30.015H0V34H9.9a7.475,7.475,0,0,0,6.7,5.121Zm.088-10.536a3.387,3.387,0,1,1-.008,0h.008" transform="translate(0 -16.256)"/><path d="M12.889,26.891a15.543,15.543,0,0,0,22.091,0A16.793,16.793,0,0,0,39.4,17.642h4.632v-3.78H39.4a16.729,16.729,0,0,0-4.407-9.248h0A15.537,15.537,0,0,0,12.905,4.6l-.016.017,2.8,2.824a11.992,11.992,0,0,1,16.513,0,12.2,12.2,0,0,1,0,16.63,11.991,11.991,0,0,1-16.513,0" transform="translate(-8.028 0)"/></g></svg>