<svg xmlns="http://www.w3.org/2000/svg" width="36" height="36" viewBox="0 0 36 36"><defs><style>.a{fill:rgba(249,172,255,0);}</style></defs><g transform="translate(0)"><rect class="a" width="36" height="36"/></g><g transform="translate(0.004 -0.005)"><path d="M14.118,16.774H2.644A2.648,2.648,0,0,1,0,14.127V2.653A2.648,2.648,0,0,1,2.644,0H14.118a2.648,2.648,0,0,1,2.648,2.648V14.127a2.647,2.647,0,0,1-2.648,2.648ZM3.526,13.244h9.709V3.535H3.526Z"/><path d="M671.281,16.774H659.807a2.648,2.648,0,0,1-2.648-2.648V2.653A2.648,2.648,0,0,1,659.807,0h11.474a2.648,2.648,0,0,1,2.648,2.648V14.127a2.648,2.648,0,0,1-2.648,2.648Zm-10.591-3.531H670.4V3.535h-9.709Z" transform="translate(-637.932)"/><path d="M14.118,673.914H2.644A2.648,2.648,0,0,1,0,671.267V659.793a2.648,2.648,0,0,1,2.648-2.648H14.118a2.648,2.648,0,0,1,2.648,2.648v11.474a2.648,2.648,0,0,1-2.648,2.648ZM3.526,670.384h9.709v-9.709H3.526Z" transform="translate(0 -637.91)"/><path d="M671.281,673.914H659.807a2.648,2.648,0,0,1-2.648-2.648V659.793a2.648,2.648,0,0,1,2.648-2.648h11.474a2.648,2.648,0,0,1,2.648,2.648v11.474a2.648,2.648,0,0,1-2.648,2.648Zm-10.591-3.531H670.4v-9.709h-9.709Z" transform="translate(-637.932 -637.91)"/></g></svg>