<svg xmlns="http://www.w3.org/2000/svg" width="36" height="36" viewBox="0 0 36 36"><defs><style>.a{fill:rgba(249,172,255,0);}</style></defs><rect class="a" width="36" height="36"/><path d="M-3172,529.4a7.6,7.6,0,0,1,7.6-7.6,7.6,7.6,0,0,1,7.6,7.6,7.6,7.6,0,0,1-7.6,7.6A7.6,7.6,0,0,1-3172,529.4Zm5.194,3.237a1.19,1.19,0,0,0,.648.241h3.912c1.353,0,1.32-1.111,1.2-1.417a.119.119,0,0,1,.019-.114,1.018,1.018,0,0,0,.175-1,.116.116,0,0,1,.017-.121,1,1,0,0,0,.173-1,.114.114,0,0,1,.017-.12.859.859,0,0,0-.577-1.473l-2.628,0a.121.121,0,0,1-.1-.186c.387-.826.3-1.048.291-1.19a4.991,4.991,0,0,0-.2-1.644.98.98,0,0,0-.939-.279c-.553.119-.61.472-.608.569,0,0,.023.905.026,1.2a.119.119,0,0,1-.01.05,15.513,15.513,0,0,1-1.176,1.963.847.847,0,0,1-.816.335.508.508,0,0,0-.586.5V532a.667.667,0,0,0,.776.658l.237-.04h.024A.257.257,0,0,1-3166.807,532.641Zm-4.338,3.168H-3186a3,3,0,0,1-3-3V504a3,3,0,0,1,3-3h15.636l9.365,9.054v9.76a10.319,10.319,0,0,0-3-.443v-7.735h-5a3,3,0,0,1-3-3v-3.768h-14v27.074h12.458a9.657,9.657,0,0,0,2.4,3.865l0,0Zm-10.163-12.52a1,1,0,0,1-1-1,1,1,0,0,1,1-1h7a1,1,0,0,1,1,1,1,1,0,0,1-1,1Zm-.06-3.865a1,1,0,0,1-1-1,1,1,0,0,1,1-1h11a1,1,0,0,1,1,1,1,1,0,0,1-1,1Zm.06-3.865a1,1,0,0,1-1-1,1,1,0,0,1,1-1h7a1,1,0,0,1,1,1,1,1,0,0,1-1,1Z" transform="translate(3190.904 -501)"/></svg>