<svg xmlns="http://www.w3.org/2000/svg" width="36" height="36" viewBox="0 0 36 36"><defs><style>.a{fill:rgba(249,172,255,0);}.b{opacity:0;}</style></defs><g transform="translate(0 0)"><rect class="a" width="36" height="36"/></g><g transform="translate(-73 -1103)"><rect class="b" width="36" height="36" transform="translate(73 1103)"/><path d="M17.988,9.214v3.13a.865.865,0,0,0,1.486.612l4.878-4.878a.866.866,0,0,0,0-1.241L19.474,1.958a.874.874,0,0,0-1.486.629v3.13A13.984,13.984,0,0,0,4,19.705a13.687,13.687,0,0,0,1,5.158,1.753,1.753,0,0,0,2.867.594,1.68,1.68,0,0,0,.4-1.818A10.181,10.181,0,0,1,7.5,19.705,10.5,10.5,0,0,1,17.988,9.214Zm10.124,4.738a1.687,1.687,0,0,0-.4,1.818A10.483,10.483,0,0,1,17.988,30.2v-3.13a.865.865,0,0,0-1.486-.612l-4.878,4.878a.866.866,0,0,0,0,1.241L16.5,37.452a.873.873,0,0,0,1.486-.612V33.693A13.984,13.984,0,0,0,31.975,19.705a13.687,13.687,0,0,0-1-5.158A1.753,1.753,0,0,0,28.111,13.953Z" transform="translate(73.012 1101.295)"/></g></svg>