<svg xmlns="http://www.w3.org/2000/svg" width="36" height="36" viewBox="0 0 36 36"><defs><style>.a{fill:rgba(249,172,255,0);}</style></defs><rect class="a" width="36" height="36"/><path d="M14.166,4.415H13.08V6.546l-2.225-.012V4.415H6.434a3.314,3.314,0,1,1,0-2.2H14.16v2.2Zm-9-1.1A1.853,1.853,0,1,0,3.311,5.171,1.857,1.857,0,0,0,5.165,3.317Z" transform="translate(13.314 12) rotate(30)"/><path d="M18,7a8.255,8.255,0,0,1,8.085,6.645l.45,2.25,2.3.165A4.475,4.475,0,0,1,28.5,25H9a6,6,0,0,1-.66-11.955l1.6-.165.75-1.425A8.2,8.2,0,0,1,18,7m0-3a11.243,11.243,0,0,0-9.975,6.06A9,9,0,0,0,9,28H28.5a7.478,7.478,0,0,0,.525-14.94A11.235,11.235,0,0,0,18,4Z" transform="translate(0 2)"/></svg>