<svg xmlns="http://www.w3.org/2000/svg" width="36" height="36" viewBox="0 0 36 36"><defs><style>.a{fill:rgba(249,172,255,0);}</style></defs><rect class="a" width="36" height="36"/><path d="M4.415,4.582,25.13,1.625a.824.824,0,0,1,.94.815V36.793a.824.824,0,0,1-.939.815L4.414,34.65A1.648,1.648,0,0,1,3,33.018V6.213A1.648,1.648,0,0,1,4.414,4.581Zm23.3.2h6.592a1.648,1.648,0,0,1,1.648,1.648V32.8a1.648,1.648,0,0,1-1.648,1.648H27.719ZM16.513,19.616l4.614-6.592H17.172l-2.637,3.767L11.9,13.024H7.944l4.614,6.592L7.944,26.208H11.9l2.637-3.767,2.637,3.767h3.955Z" transform="translate(-1.479 -1.616)"/></svg>