<svg xmlns="http://www.w3.org/2000/svg" width="36" height="36" viewBox="0 0 36 36"><defs><style>.a{fill:rgba(249,172,255,0);}</style></defs><g transform="translate(0 0)"><rect class="a" width="36" height="36"/></g><path d="M33.157,21.764A14.027,14.027,0,0,0,33.283,20a14.028,14.028,0,0,0-.126-1.764l3.8-2.97a.908.908,0,0,0,.216-1.152l-3.6-6.228a.9.9,0,0,0-.792-.45.841.841,0,0,0-.306.054l-4.482,1.8a13.151,13.151,0,0,0-3.042-1.764l-.684-4.77A.878.878,0,0,0,23.383,2h-7.2a.878.878,0,0,0-.882.756l-.684,4.77A13.829,13.829,0,0,0,11.575,9.29L7.093,7.49a1.019,1.019,0,0,0-.324-.054A.891.891,0,0,0,6,7.886L2.4,14.114a.887.887,0,0,0,.216,1.152l3.8,2.97A14.275,14.275,0,0,0,6.283,20a14.275,14.275,0,0,0,.126,1.764l-3.8,2.97A.908.908,0,0,0,2.4,25.886L6,32.114a.9.9,0,0,0,.792.45.841.841,0,0,0,.306-.054l4.482-1.8a13.151,13.151,0,0,0,3.042,1.764l.684,4.77a.878.878,0,0,0,.882.756h7.2a.878.878,0,0,0,.882-.756l.684-4.77a13.829,13.829,0,0,0,3.042-1.764l4.482,1.8a1.019,1.019,0,0,0,.324.054.892.892,0,0,0,.774-.45l3.6-6.228a.908.908,0,0,0-.216-1.152Zm-3.564-3.078A9.617,9.617,0,0,1,29.683,20c0,.378-.036.774-.09,1.314l-.252,2.034,1.6,1.26,1.944,1.512L31.627,28.3l-2.286-.918-1.872-.756-1.62,1.224a10.542,10.542,0,0,1-2.25,1.314l-1.908.774L21.4,31.97l-.36,2.43h-2.52l-.342-2.43-.288-2.034-1.908-.774a10.213,10.213,0,0,1-2.214-1.278l-1.638-1.26-1.908.774-2.286.918-1.26-2.178,1.944-1.512,1.6-1.26-.252-2.034c-.054-.558-.09-.972-.09-1.332s.036-.774.09-1.314l.252-2.034-1.6-1.26L6.679,13.88,7.939,11.7l2.286.918,1.872.756,1.62-1.224a10.542,10.542,0,0,1,2.25-1.314l1.908-.774.288-2.034.36-2.43h2.5l.342,2.43.288,2.034,1.908.774a10.213,10.213,0,0,1,2.214,1.278l1.638,1.26,1.908-.774,2.286-.918,1.26,2.178-1.926,1.53-1.6,1.26.252,2.034ZM19.783,12.8a7.2,7.2,0,1,0,7.2,7.2A7.2,7.2,0,0,0,19.783,12.8Zm0,10.8a3.6,3.6,0,1,1,3.6-3.6A3.611,3.611,0,0,1,19.783,23.6Z" transform="translate(-1.757 -2)"/></svg>