<svg xmlns="http://www.w3.org/2000/svg" width="36" height="36" viewBox="0 0 36 36"><defs><style>.a{fill:rgba(249,172,255,0);}</style></defs><rect class="a" width="36" height="36"/><g transform="translate(-4661.926 -1370.739)"><path d="M0,1.535a1.535,1.535,0,0,1,3.07,0V21.071a1.535,1.535,0,0,1-3.07,0Z" transform="translate(4695.755 1370.739) rotate(45)"/><path d="M21.674,6.07h-6.14a1.535,1.535,0,0,1,0-3.07h7.674a1.535,1.535,0,0,1,1.535,1.535v7.674a1.535,1.535,0,0,1-3.07,0Z" transform="translate(4672.545 1368.375)"/><path d="M30.495,21.147a1.9,1.9,0,1,1,3.8,0V31.833a5.462,5.462,0,0,1-5.462,5.462H7.462A5.462,5.462,0,0,1,2,31.833V10.461A5.461,5.461,0,0,1,7.462,5H19.038a1.9,1.9,0,1,1,0,3.8H7.462A1.662,1.662,0,0,0,5.8,10.461V31.833a1.662,1.662,0,0,0,1.662,1.662H28.833a1.662,1.662,0,0,0,1.662-1.662Z" transform="translate(4659.926 1369.445)"/></g></svg>