<svg xmlns="http://www.w3.org/2000/svg" width="36" height="36" viewBox="0 0 36 36"><defs><style>.a{fill:rgba(249,172,255,0);}</style></defs><rect class="a" width="36" height="36"/><path d="M45.217,23a1.762,1.762,0,0,0-1.247.517l-8.3,8.3,2.491,2.491,5.29-5.29V40.047a5.292,5.292,0,0,1-5.29,5.29H33.838a7.64,7.64,0,1,0,0,3.527h4.326a8.819,8.819,0,0,0,8.817-8.817V29.018l5.29,5.29,2.491-2.491-8.3-8.3A1.762,1.762,0,0,0,45.217,23ZM26.408,51.215A4.115,4.115,0,1,1,30.522,47.1a4.119,4.119,0,0,1-4.115,4.115Z" transform="translate(-18.762 -21)"/></svg>