<svg xmlns="http://www.w3.org/2000/svg" width="36" height="36" viewBox="0 0 36 36"><defs><style>.a{fill:rgba(249,172,255,0);}.b{fill:#c6243a;}</style></defs><g transform="translate(0)"><rect class="a" width="36" height="36"/></g><path class="b" d="M33.992,30.876H2A2.04,2.04,0,0,1,.263,29.9a1.976,1.976,0,0,1-.015-1.944L16.263.975A2.063,2.063,0,0,1,17.9,0l.079,0a2.065,2.065,0,0,1,1.744.975L35.738,27.958a1.937,1.937,0,0,1,0,1.944A2.091,2.091,0,0,1,33.992,30.876ZM18.1,4.717h-.059a1.537,1.537,0,0,0-1.222.724L4.9,25.529a1.47,1.47,0,0,0,.011,1.448A1.518,1.518,0,0,0,6.2,27.7H30.02a1.556,1.556,0,0,0,1.3-.724,1.443,1.443,0,0,0,0-1.448L19.4,5.442A1.537,1.537,0,0,0,18.1,4.717Z" transform="translate(0 3)"/><path class="b" d="M46.226,32.992a1.858,1.858,0,0,1,1.861,1.861l-.37,6.706a1.492,1.492,0,1,1-2.983,0l-.37-6.706a1.858,1.858,0,0,1,1.861-1.861Zm0,11.181A2.237,2.237,0,1,1,44,46.4,2.239,2.239,0,0,1,46.226,44.173Z" transform="translate(-28.062 -19.944)"/></svg>