<svg xmlns="http://www.w3.org/2000/svg" width="36" height="36" viewBox="0 0 36 36"><defs><style>.a{fill:rgba(249,172,255,0);}.b{opacity:0;}</style></defs><rect class="a" width="36" height="36"/><g transform="translate(-315 -1103)"><rect class="b" width="36" height="36" transform="translate(315 1103)"/><path d="M22.189,3A15.97,15.97,0,0,0,5.763,18.967H2.588a.878.878,0,0,0-.621,1.508l4.949,4.967a.878.878,0,0,0,1.259,0l4.949-4.967a.882.882,0,0,0-.621-1.508H9.311A12.413,12.413,0,0,1,21.905,6.55,12.574,12.574,0,0,1,34.145,18.79,12.424,12.424,0,0,1,21.728,31.384a12.231,12.231,0,0,1-7.592-2.625,1.764,1.764,0,0,0-2.341.142,1.792,1.792,0,0,0,.142,2.661A15.955,15.955,0,0,0,37.692,18.506,16.152,16.152,0,0,0,22.189,3Z" transform="translate(313.302 1102.036)"/></g></svg>