<svg xmlns="http://www.w3.org/2000/svg" width="36" height="36" viewBox="0 0 36 36"><defs><style>.a{fill:rgba(249,172,255,0);}.b{opacity:0;}</style></defs><rect class="a" width="36" height="36"/><g transform="translate(-365.5 -411.5)"><rect class="b" width="36" height="36" transform="translate(365.5 411.5)"/><path d="M35.506,22.631l1.606-5.045h0a2.238,2.238,0,0,0-1.453-2.811l-2.952-.934-1.79-5.654A2.239,2.239,0,0,0,28.1,6.734L19.224,9.552,10.345,6.729A2.24,2.24,0,0,0,7.532,8.184l-1.8,5.654-2.952.934h0a2.239,2.239,0,0,0-1.453,2.812l1.612,5.048-1.6,5.045a2.239,2.239,0,0,0,1.455,2.811l2.952.934,1.8,5.654a2.229,2.229,0,0,0,2.811,1.453l8.868-2.818L28.1,38.533a2.24,2.24,0,0,0,2.812-1.455l1.8-5.654,2.952-.934h0a2.239,2.239,0,0,0,1.453-2.812Zm-.414-6.1a.4.4,0,0,1,.255.494l-.812,2.557-1.142-3.594ZM9.293,8.744a.4.4,0,0,1,.494-.255l6.392,2.03L7.89,13.154ZM3.355,28.731a.4.4,0,0,1-.255-.494l.812-2.557,1.142,3.594Zm25.8,7.787h0a.4.4,0,0,1-.5.255l-6.392-2.03,8.289-2.635Zm5.933-7.787-25.3,8.041a.4.4,0,0,1-.494-.255L3.1,17.025a.4.4,0,0,1,.258-.494L28.663,8.485h0a.375.375,0,0,1,.118-.019.393.393,0,0,1,.378.277L35.35,28.237a.4.4,0,0,1-.258.494ZM22.214,17.409A11.877,11.877,0,0,1,11.881,30.425h-.115a.924.924,0,0,1-.111-1.845,10.032,10.032,0,0,0,8.729-10.931l-1.355,1.734a.922.922,0,1,1-1.453-1.136l2.727-3.5A.922.922,0,0,1,21.6,14.59l3.5,2.727a.923.923,0,1,1-1.137,1.453ZM10.888,23.885l.587-1.519-1.521-.582h0a.927.927,0,0,1,.657-1.734l1.521.582.582-1.521h0a.923.923,0,0,1,1.713.672L13.854,21.3l1.524.591a.923.923,0,0,1-.66,1.724L13.2,23.034l-.582,1.521h0a.922.922,0,0,1-1.723-.66Zm18.847,2.406h0a.923.923,0,0,1-1.192.53l-1.521-.582-.587,1.519a.922.922,0,1,1-1.723-.66l.582-1.517-1.521-.591a.923.923,0,0,1,.662-1.723l1.521.582.582-1.521h0A.926.926,0,1,1,28.265,23l-.582,1.521,1.5.579a.922.922,0,0,1,.546,1.192Z" transform="translate(364.277 406.869)"/></g></svg>