<svg xmlns="http://www.w3.org/2000/svg" width="36" height="36" viewBox="0 0 36 36"><defs><style>.a{fill:rgba(249,172,255,0);}</style></defs><rect class="a" width="36" height="36"/><path d="M40.159,13.277a3.634,3.634,0,0,0-2.267-3.332L25.3,4.787a8.224,8.224,0,0,0-6.277,0L6.439,9.945A3.633,3.633,0,0,0,4.17,13.277c0,.011-.006.018-.006.028l0,17.714a3.621,3.621,0,0,0,2.274,3.364l12.589,5.167v0a8.285,8.285,0,0,0,6.279,0l12.6-5.173a3.607,3.607,0,0,0,2.257-3.355V13.3c0-.011,0-.018,0-.028Zm-32.479-.3L20.268,7.814a5.052,5.052,0,0,1,3.792,0l12.589,5.158,0,0a.361.361,0,0,1,0,.681L24.062,18.813a5.045,5.045,0,0,1-3.8,0L7.678,13.654a.361.361,0,0,1,0-.681ZM7.7,31.362h0a.35.35,0,0,1-.262-.344V17.092L19.026,21.84v0a8.418,8.418,0,0,0,1.5.451V36.6C20.442,36.567,7.7,31.362,7.7,31.362Zm28.946-.008S23.889,36.567,23.8,36.6V22.292a8.421,8.421,0,0,0,1.5-.451l11.588-4.75V31.018a.339.339,0,0,1-.245.336Z" transform="translate(-4.164 -4.165)"/></svg>