<svg xmlns="http://www.w3.org/2000/svg" width="36" height="36" viewBox="0 0 36 36"><defs><style>.a{fill:rgba(249,172,255,0);}</style></defs><rect class="a" width="36" height="36"/><g transform="translate(-150 -1979)"><path d="M5.143,1.429a1,1,0,0,1,1.715,0l4.234,7.056A1,1,0,0,1,10.234,10H1.766A1,1,0,0,1,.909,8.486Z" transform="translate(173 1986) rotate(90)"/><rect width="10" height="2" rx="1" transform="translate(163 2001)"/><rect width="10" height="2" rx="1" transform="translate(163 2005)"/><path d="M29,36H7a7.008,7.008,0,0,1-7-7V7A7.008,7.008,0,0,1,7,0H29a7.008,7.008,0,0,1,7,7V29A7.008,7.008,0,0,1,29,36ZM8.24,3.24a5.006,5.006,0,0,0-5,5V28.12a5.006,5.006,0,0,0,5,5H28.12a5.006,5.006,0,0,0,5-5V8.24a5.006,5.006,0,0,0-5-5Z" transform="translate(150 1979)"/></g></svg>