<svg xmlns="http://www.w3.org/2000/svg" width="36" height="36" viewBox="0 0 36 36"><defs><style>.a{fill:rgba(249,172,255,0);}</style></defs><g transform="translate(0)"><rect class="a" width="36" height="36"/></g><path d="M57.65,48.846a1.512,1.512,0,0,0-2.137,0l-3.905,3.905,0-28.547a1.512,1.512,0,0,0-3.024,0v28.55l-3.908-3.908a1.513,1.513,0,0,0-2.137,2.142l6.486,6.486a1.515,1.515,0,0,0,.5.33l.023.008a1.467,1.467,0,0,0,1.1,0l.023-.008a1.464,1.464,0,0,0,.5-.33l6.486-6.486a1.515,1.515,0,0,0,0-2.142ZM36.708,57.911h-13.1A1.513,1.513,0,0,1,22.094,56.4V43.308A1.513,1.513,0,0,1,23.606,41.8h13.1a1.511,1.511,0,0,1,1.512,1.512V56.4a1.51,1.51,0,0,1-1.512,1.512Zm1.512-20.459V24.358a1.51,1.51,0,0,0-1.512-1.512h-13.1A1.51,1.51,0,0,0,22.1,24.358V37.452a1.51,1.51,0,0,0,1.512,1.512H36.7a1.51,1.51,0,0,0,1.512-1.512ZM35.2,35.94H25.12V25.867H35.193Z" transform="translate(-22.094 -22.305)"/></svg>