<svg xmlns="http://www.w3.org/2000/svg" width="36" height="36" viewBox="0 0 36 36"><defs><style>.a{fill:rgba(249,172,255,0);}</style></defs><g transform="translate(0)"><rect class="a" width="36" height="36"/></g><path d="M57.65,31.765a1.512,1.512,0,0,1-2.137,0l-3.905-3.905,0,28.547a1.512,1.512,0,0,1-3.024,0V27.857l-3.908,3.908a1.513,1.513,0,1,1-2.137-2.142l6.486-6.486a1.515,1.515,0,0,1,.5-.33l.023-.008a1.467,1.467,0,0,1,1.1,0l.023.008a1.464,1.464,0,0,1,.5.33l6.486,6.486a1.515,1.515,0,0,1,0,2.142ZM36.708,22.7h-13.1a1.513,1.513,0,0,0-1.512,1.512V37.3a1.513,1.513,0,0,0,1.512,1.512h13.1A1.511,1.511,0,0,0,38.219,37.3V24.211A1.51,1.51,0,0,0,36.708,22.7Zm1.512,20.459V56.253a1.51,1.51,0,0,1-1.512,1.512h-13.1A1.51,1.51,0,0,1,22.1,56.253V43.158a1.51,1.51,0,0,1,1.512-1.512H36.7a1.51,1.51,0,0,1,1.512,1.512ZM35.2,44.67H25.12V54.743H35.193Z" transform="translate(-22.094 -22.692)"/></svg>