<svg xmlns="http://www.w3.org/2000/svg" width="36" height="36.001" viewBox="0 0 36 36.001"><defs><style>.a{fill:rgba(249,172,255,0);}</style></defs><g transform="translate(0 0)"><g transform="translate(0 0)"><rect class="a" width="36" height="36"/></g><g transform="translate(1.235 0.001)"><path d="M-3277,456.5a5.506,5.506,0,0,1,5.5-5.5,5.482,5.482,0,0,1,3.836,1.562l7.11-4.272a8.947,8.947,0,0,1-.916-3.953,8.947,8.947,0,0,1,1.321-4.69l-7.433-4.291A5.483,5.483,0,0,1-3271.5,437a5.507,5.507,0,0,1-5.5-5.5,5.506,5.506,0,0,1,5.5-5.5,5.506,5.506,0,0,1,5.5,5.5,5.489,5.489,0,0,1-.137,1.225l8,4.622a8.958,8.958,0,0,1,5.663-2.01,9.01,9.01,0,0,1,9,9,9.01,9.01,0,0,1-9,9,8.97,8.97,0,0,1-6.325-2.6l-7.37,4.428A5.491,5.491,0,0,1-3266,456.5a5.506,5.506,0,0,1-5.5,5.5A5.507,5.507,0,0,1-3277,456.5Zm2,0a3.5,3.5,0,0,0,3.5,3.5,3.5,3.5,0,0,0,3.5-3.5,3.5,3.5,0,0,0-3.5-3.5A3.5,3.5,0,0,0-3275,456.5Zm16.53-12.164a6.007,6.007,0,0,0,6,6,6.007,6.007,0,0,0,6-6,6.007,6.007,0,0,0-6-6A6.007,6.007,0,0,0-3258.47,444.336ZM-3275,431.5a3.5,3.5,0,0,0,3.5,3.5,3.5,3.5,0,0,0,3.5-3.5,3.5,3.5,0,0,0-3.5-3.5A3.5,3.5,0,0,0-3275,431.5Z" transform="translate(3277 -426)"/></g></g></svg>