<svg xmlns="http://www.w3.org/2000/svg" width="36" height="36" viewBox="0 0 36 36"><defs><style>.a{fill:rgba(249,172,255,0);}</style></defs><rect class="a" width="36" height="36"/><path d="M-3166.656,530.657A7.944,7.944,0,0,1-3169,525a7.944,7.944,0,0,1,2.344-5.657A7.946,7.946,0,0,1-3161,517a7.949,7.949,0,0,1,5.656,2.343A7.947,7.947,0,0,1-3153,525a7.947,7.947,0,0,1-2.343,5.657A7.952,7.952,0,0,1-3161,533,7.95,7.95,0,0,1-3166.656,530.657Zm-.566-5.657a6.228,6.228,0,0,0,6.223,6.222,6.228,6.228,0,0,0,6.222-6.222,6.229,6.229,0,0,0-6.222-6.223A6.229,6.229,0,0,0-3167.222,525Zm-17.238,2.461A15.4,15.4,0,0,1-3189,516.5a15.4,15.4,0,0,1,4.54-10.96A15.4,15.4,0,0,1-3173.5,501a15.4,15.4,0,0,1,10.96,4.54A15.4,15.4,0,0,1-3158,516.5v.012a8.96,8.96,0,0,0-3-.512c-.151,0-.3,0-.455.011a12.02,12.02,0,0,0-12.046-11.567,12.069,12.069,0,0,0-12.055,12.056,12.069,12.069,0,0,0,12.055,12.055,12.015,12.015,0,0,0,3.972-.672,8.94,8.94,0,0,0,1.746,3.032A15.447,15.447,0,0,1-3173.5,532,15.4,15.4,0,0,1-3184.46,527.46ZM-3163,526a1,1,0,0,1-1-1,1,1,0,0,1,1-1h5a1,1,0,0,1,1,1,1,1,0,0,1-1,1Zm-14.5-8a1.5,1.5,0,0,1-1.5-1.5,1.5,1.5,0,0,1,1.5-1.5h9a1.5,1.5,0,0,1,1.5,1.5,1.5,1.5,0,0,1-1.5,1.5Z" transform="translate(3189 -499)"/></svg>