<svg xmlns="http://www.w3.org/2000/svg" width="36" height="36" viewBox="0 0 36 36"><defs><style>.a{fill:rgba(249,172,255,0);}</style></defs><g transform="translate(0 0)"><rect class="a" width="36" height="36"/></g><path d="M23.313,10.822a10.149,10.149,0,1,0,7.107,7.107,1.125,1.125,0,0,1,2.17-.594,12.4,12.4,0,1,1-8.683-8.683,1.125,1.125,0,0,1,.828,1.085,1.154,1.154,0,0,1-.04.3,1.125,1.125,0,0,1-1.382.787Zm13.172,3.924a1.126,1.126,0,0,0-.76,1.4A15.733,15.733,0,1,1,25.1,5.516a1.124,1.124,0,0,0,1.4-.76,1.126,1.126,0,0,0-.76-1.4A17.982,17.982,0,1,0,37.883,15.505a1.125,1.125,0,0,0-1.4-.76ZM20.621,16.121a4.65,4.65,0,0,1,.5.027,1.125,1.125,0,1,0,.245-2.236,6.885,6.885,0,0,0-.742-.04,6.75,6.75,0,1,0,6.751,6.75,1.125,1.125,0,0,0-2.25,0,4.5,4.5,0,1,1-4.5-4.5Zm5.745-2.836.561-5.622a1.122,1.122,0,0,1,.324-.684L31.281,2.95a1.124,1.124,0,0,1,1.916.708l.319,4.068,4.068.319a1.124,1.124,0,0,1,.708,1.916l-4.031,4.031a1.122,1.122,0,0,1-.684.324l-5.622.561-6.539,6.54a1.125,1.125,0,0,1-1.591-1.591Zm2.336-.743,4.253-.424L34.976,10.1l-2.593-.2a1.127,1.127,0,0,1-1.034-1.034l-.2-2.593L29.124,8.287Z" transform="translate(-2.621 -2.621)"/></svg>