<svg xmlns="http://www.w3.org/2000/svg" width="36" height="36" viewBox="0 0 36 36"><defs><style>.a{fill:rgba(249,172,255,0);}</style></defs><rect class="a" width="36" height="36"/><path d="M45.217,54.741a1.762,1.762,0,0,1-1.247-.517l-8.3-8.3,2.491-2.491,5.29,5.29V37.7a5.292,5.292,0,0,0-5.29-5.29H33.838a7.64,7.64,0,1,1,0-3.527h4.326A8.819,8.819,0,0,1,46.981,37.7V48.723l5.29-5.29,2.491,2.491-8.3,8.3a1.762,1.762,0,0,1-1.247.517ZM26.408,26.527a4.115,4.115,0,1,0,4.115,4.115,4.119,4.119,0,0,0-4.115-4.115Z" transform="translate(-18.762 -21)"/></svg>