<svg xmlns="http://www.w3.org/2000/svg" width="36" height="36" viewBox="0 0 36 36"><defs><style>.a{fill:rgba(249,172,255,0);}</style></defs><rect class="a" width="36" height="36"/><path d="M31.724,6.419a1.861,1.861,0,0,1-.563,1.367L16.606,22.341l-2.734,2.734a1.941,1.941,0,0,1-2.734,0L8.4,22.341,1.125,15.064a1.941,1.941,0,0,1,0-2.734L3.859,9.6a1.861,1.861,0,0,1,1.367-.563A1.861,1.861,0,0,1,6.593,9.6l5.91,5.931L25.692,2.319a1.941,1.941,0,0,1,2.734,0L31.16,5.053a1.861,1.861,0,0,1,.563,1.367Z" transform="translate(1.857 4.303)"/></svg>