<svg xmlns="http://www.w3.org/2000/svg" width="36" height="36" viewBox="0 0 36 36"><path d="M36,4.658H31.8v-.65L29,2.872H24.52V1.627h-3V.436C21.52.165,21.36,0,21.2,0H1.16C.52-.051,0,.653,0,1.519V9.746c0,.866.52,1.57,1.16,1.57H5.24v14.02c0,.758-.44,1.407-1.04,1.407h0c-.64,0-1.2.7-1.2,1.624v4.006H17.68V29.991c0-1.786-1.08-3.248-2.4-3.248H13.76c-1.12,0-2-1.407-1.76-2.923l.76-4.98h1.92c2.2,0,4-2.436,4-5.413V11.262H21.2c.2,0,.32-.217.32-.433V9.638h3V8.393h4.44l2.8-1.137v-.65H36ZM17.92,11.316v2.165c0,2.382-1.44,4.276-3.16,4.276H13l1-6.442Z" transform="translate(36) rotate(90)"/><path d="M0,.866C0,1.732.52,2.49,1.2,2.49H13.52c.64,0,1.2-.7,1.2-1.624V0H0Z" transform="translate(2.49 3.04) rotate(90)"/></svg>