<svg xmlns="http://www.w3.org/2000/svg" width="36" height="36" viewBox="0 0 36 36"><defs><style>.a{fill:rgba(249,172,255,0);}</style></defs><rect class="a" width="36" height="36"/><path d="M46.264,16.99V37.759a4.155,4.155,0,0,1-4.154,4.154H37.264a1.385,1.385,0,0,1,0-2.769H42.11a1.383,1.383,0,0,0,1.385-1.385V16.99a1.383,1.383,0,0,0-1.385-1.385H37.264a1.385,1.385,0,0,1,0-2.769H42.11a4.155,4.155,0,0,1,4.154,4.154ZM33.11,10.76V43.99a1.385,1.385,0,1,1-2.769,0V41.913h-9a4.155,4.155,0,0,1-4.154-4.154V16.99a4.155,4.155,0,0,1,4.154-4.154h9V10.76a1.385,1.385,0,1,1,2.769,0ZM30.341,39.144V15.606h-9a1.384,1.384,0,0,0-1.385,1.385V37.759a1.383,1.383,0,0,0,1.385,1.385Z" transform="translate(-14.187 -9.375)"/><rect width="6" height="6" transform="translate(8 15)"/><circle cx="3" cy="3" r="3" transform="translate(21 15)"/></svg>