<svg
  <defs>
    <style>
      .cls-1, .cls-2 {
        stroke: rgba(0,0,0,0);
      }

      .cls-2 {
        filter: url(#Rectangle_24);
      }

      .cls-3 {
        fill: #fff;
      }

      .cls-4 {
        fill: #3f68c6;
      }

      .cls-5 {
        fill: #999;
        font-size: 13px;
      }

      .cls-5, .cls-6, .cls-7 {
        font-family: ProximaNova-Regular, Proxima Nova;
        letter-spacing: -0.01em;
      }

      .cls-6 {
        fill: #333;
        font-size: 20px;
      }

      .cls-7 {
        fill: #666;
        font-size: 14px;
      }

      .cls-8 {
        isolation: isolate;
      }

      .cls-9 {
        clip-path: url(#clip-path);
      }

      .cls-10 {
        fill: rgba(0,0,0,0);
      }

      .cls-11 {
        clip-path: url(#clip-path-2);
      }

      .cls-12 {
        fill: #416bc3;
      }

      .cls-13 {
        fill: #f5cf47;
      }

      .cls-14 {
        fill: #4867c0;
      }

      .cls-15 {
        filter: url(#Path_8606);
      }

      .cls-16 {
        filter: url(#Rectangle_3651);
      }

      .cls-17 {
        filter: url(#Rectangle_23);
      }

      .cls-18 {
        filter: url(#Rectangle_22);
      }
    </style>
    <filter id="Rectangle_22" x="42" y="219.839" width="80.756" height="30.902" filterUnits="userSpaceOnUse">
      <feOffset dy="2" input="SourceAlpha"/>
      <feGaussianBlur stdDeviation="3" result="blur"/>
      <feFlood flood-opacity="0.122"/>
      <feComposite operator="in" in2="blur"/>
      <feComposite in="SourceGraphic"/>
    </filter>
    <filter id="Rectangle_23" x="42" y="219.839" width="80.758" height="30.902" filterUnits="userSpaceOnUse">
      <feOffset dy="2" input="SourceAlpha"/>
      <feGaussianBlur stdDeviation="3" result="blur-2"/>
      <feFlood flood-opacity="0.122"/>
      <feComposite operator="in" in2="blur-2"/>
      <feComposite in="SourceGraphic"/>
    </filter>
    <filter id="Rectangle_24" x="42" y="219.839" width="80.756" height="30.902" filterUnits="userSpaceOnUse">
      <feOffset dy="2" input="SourceAlpha"/>
      <feGaussianBlur stdDeviation="3" result="blur-3"/>
      <feFlood flood-opacity="0.122"/>
      <feComposite operator="in" in2="blur-3"/>
      <feComposite in="SourceGraphic"/>
    </filter>
    <filter id="Rectangle_3651" x="0" y="1.79" width="297" height="369" filterUnits="userSpaceOnUse">
      <feOffset dy="2" input="SourceAlpha"/>
      <feGaussianBlur stdDeviation="1.5" result="blur-4"/>
      <feFlood flood-opacity="0.2"/>
      <feComposite operator="in" in2="blur-4"/>
      <feComposite in="SourceGraphic"/>
    </filter>
    <clipPath id="clip-path">
      <g class="cls-18" transform="matrix(1, 0, 0, 1, 0, 0)">
        <rect id="Rectangle_22-2" data-name="Rectangle 22" class="cls-1" width="61.756" height="11.902"/>
      </g>
    </clipPath>
    <clipPath id="clip-path-2">
      <g class="cls-17" transform="matrix(1, 0, 0, 1, 0, 0)">
        <rect id="Rectangle_23-2" data-name="Rectangle 23" class="cls-1" width="61.758" height="11.902"/>
      </g>
    </clipPath>
    <filter id="Path_8606" x="260.5" y="0" width="35" height="44" filterUnits="userSpaceOnUse">
      <feOffset dy="3" input="SourceAlpha"/>
      <feGaussianBlur stdDeviation="3" result="blur-5"/>
      <feFlood flood-opacity="0.161"/>
      <feComposite operator="in" in2="blur-5"/>
      <feComposite in="SourceGraphic"/>
    </filter>
  </defs>
  <g id="CardSolutions1" transform="translate(-96.5 -869)">
    <g class="cls-16" transform="matrix(1, 0, 0, 1, 96.5, 869)">
      <rect id="Rectangle_3651-2" data-name="Rectangle 3651" class="cls-3" width="288" height="360" rx="2" transform="translate(4.5 4.29)"/>
    </g>
    <path id="Rectangle_3652" data-name="Rectangle 3652" class="cls-4" d="M2,0H286a2,2,0,0,1,2,2V16a0,0,0,0,1,0,0H0a0,0,0,0,1,0,0V2A2,2,0,0,1,2,0Z" transform="translate(101 873.29)"/>
    <text id="by:" class="cls-5" transform="translate(125.5 1106.29)"><tspan x="0" y="0">by:</tspan></text>
    <text id="Solution_Title" data-name="Solution Title" class="cls-6" transform="translate(125 1087.29)"><tspan x="0" y="0">Solution Title</tspan></text>
    <text id="Streamline_the_planning_of_capital_assets_and_related_impact_to_depreciation_maintenance_and_insurance_across_the_P_L_Balance_Sheet_and_Cash_Flow_Statement." data-name="Streamline the planning of capital assets and related impact to depreciation, maintenance and insurance across the P&amp;L, Balance Sheet and Cash Flow Statement." class="cls-7" transform="translate(125.5 1127.29)"><tspan x="0" y="13">Streamline the planning of capital </tspan><tspan x="0" y="30">assets and related impact to </tspan><tspan x="0" y="47">depreciation, maintenance and </tspan><tspan x="0" y="64">insurance across the P&amp;L, Balance </tspan><tspan x="0" y="81">Sheet and Cash Flow Statement.</tspan></text>
    <g id="logo-header" class="cls-8" transform="translate(31.672 1081.364)">
      <g id="OS-logo-K" transform="translate(116.328 14.975)">
        <g id="Group_35" data-name="Group 35">
          <g id="Group_34" data-name="Group 34" class="cls-9">
            <path id="Path_29" data-name="Path 29" d="M441.328,296.925a7.506,7.506,0,0,0,3.478.75,4.172,4.172,0,0,0,3.9-2.582c.107-.227.2-.462.288-.7a13.11,13.11,0,0,0,.509-1.926,7.768,7.768,0,0,1,.727-2.078,4.842,4.842,0,0,1,1.8-1.893c.434-.261.457-.256.782.154.011.014.023.027.033.042a5.378,5.378,0,0,1-4.676,8.58,1.452,1.452,0,0,0-1.057.351c.085.132.2.127.3.145a5.863,5.863,0,0,0,4.561-.988,5.943,5.943,0,0,0,1.219-8.573c-.306-.38-.306-.379-.759-.2a5.69,5.69,0,0,0-3.462,3.472c-.14.388-.282.777-.429,1.163a6.051,6.051,0,0,1-3.177,3.428,9.065,9.065,0,0,1-4.039.853m8.694-10.75a3.847,3.847,0,0,0-.887-.173,5.86,5.86,0,0,0-5.853,3.157,5.79,5.79,0,0,0,.614,6.484c.153.206.282.386.611.259a5.723,5.723,0,0,0,3.44-3.144c.25-.6.458-1.209.7-1.807a5.778,5.778,0,0,1,2.369-2.787,7.937,7.937,0,0,1,4.252-1.191h.492a7.075,7.075,0,0,0-3.713-.785,4.141,4.141,0,0,0-3.613,2.438,6.924,6.924,0,0,0-.534,1.409c-.187.73-.34,1.471-.547,2.2a5.129,5.129,0,0,1-2.313,3.131c-.429.257-.448.262-.738-.134a5.379,5.379,0,0,1,4.575-8.66,1.459,1.459,0,0,0,1.142-.39" transform="translate(-441.328 -285.975)"/>
            <path id="Path_29_-_Outline" data-name="Path 29 - Outline" class="cls-10" d="M448.583,298.377a7.236,7.236,0,0,1-1.254-.113l-.03,0a.8.8,0,0,1-.607-.36l-.053-.082a5.318,5.318,0,0,1-1.817.358,8.036,8.036,0,0,1-3.707-.8l.218-.952a9.023,9.023,0,0,0,2.337-.269,2.108,2.108,0,0,1-.168-.206l-.007-.009a6.8,6.8,0,0,1-1.4-3.407,6.517,6.517,0,0,1,.743-3.6,6.342,6.342,0,0,1,5.717-3.458c.208,0,.419.01.628.029a4.34,4.34,0,0,1,1,.2l.628.206a5.3,5.3,0,0,1,1.211-.218c.167-.011.336-.017.5-.017a7.7,7.7,0,0,1,3.469.854l-.224.947h-.5a7.708,7.708,0,0,0-1.849.22c.058.063.114.133.172.205a6.358,6.358,0,0,1,1.351,4.923,6.467,6.467,0,0,1-2.671,4.372A6.292,6.292,0,0,1,448.583,298.377Zm-4.722-1.237a6.674,6.674,0,0,0,.929.036,3.676,3.676,0,0,0,3.466-2.295c.1-.221.2-.458.273-.662a7.9,7.9,0,0,0,.277-.912,6.538,6.538,0,0,1-3.225,3.217A9.185,9.185,0,0,1,443.861,297.14Zm4.317-.364h.016c.114.006.227.009.338.009a4.583,4.583,0,0,0,4.282-2.538,4.686,4.686,0,0,0-.376-5.259l-.019-.023-.062-.078-.07.042a4.315,4.315,0,0,0-1.613,1.7,7.184,7.184,0,0,0-.679,1.945l-.024.113a12.747,12.747,0,0,1-.506,1.886c-.084.222-.184.479-.3.732A5.46,5.46,0,0,1,448.178,296.775Zm.425-9.716a4.612,4.612,0,0,0-4.369,2.617,4.662,4.662,0,0,0,.474,5.252l.024.033.054-.032a4.608,4.608,0,0,0,2.089-2.839c.124-.433.231-.884.334-1.321.067-.282.136-.574.21-.861a7.448,7.448,0,0,1,.572-1.51,5.469,5.469,0,0,1,.928-1.331l-.058,0C448.775,287.061,448.687,287.06,448.6,287.06Zm3.916-.39c-.144,0-.29,0-.435.015a3.643,3.643,0,0,0-3.2,2.165,6.447,6.447,0,0,0-.5,1.307c-.029.113-.058.228-.086.343a6.272,6.272,0,0,1,2.456-2.763,8.427,8.427,0,0,1,2.461-1.028A6.33,6.33,0,0,0,452.518,286.67Z" transform="translate(-441.328 -285.975)"/>
            <path id="Path_30" data-name="Path 30" d="M441.329,308.051a9.066,9.066,0,0,0,4.039-.853,6.052,6.052,0,0,0,3.177-3.428c.147-.386.289-.774.429-1.163a5.689,5.689,0,0,1,3.462-3.472c.454-.178.453-.179.759.2a5.943,5.943,0,0,1-1.219,8.573,5.862,5.862,0,0,1-4.561.988c-.1-.018-.219-.013-.3-.145a1.451,1.451,0,0,1,1.057-.351,5.378,5.378,0,0,0,4.676-8.579c-.01-.015-.022-.028-.033-.042-.325-.41-.348-.416-.782-.154a4.844,4.844,0,0,0-1.8,1.893,7.755,7.755,0,0,0-.727,2.078,13.11,13.11,0,0,1-.509,1.926c-.089.235-.181.47-.287.7a4.173,4.173,0,0,1-3.9,2.582,7.5,7.5,0,0,1-3.478-.75" transform="translate(-441.329 -297.102)"/>
            <path id="Path_30_-_Outline" data-name="Path 30 - Outline" class="cls-10" d="M448.584,309.5a7.235,7.235,0,0,1-1.255-.113l-.03,0a.8.8,0,0,1-.607-.36l-.053-.082a5.318,5.318,0,0,1-1.816.358,8.034,8.034,0,0,1-3.707-.8l.218-.952h.1a8.5,8.5,0,0,0,3.719-.805,5.523,5.523,0,0,0,2.924-3.155c.151-.4.294-.789.426-1.154a6.2,6.2,0,0,1,3.75-3.768,1.519,1.519,0,0,1,.562-.15c.364,0,.552.233.769.5a6.357,6.357,0,0,1,1.351,4.923,6.467,6.467,0,0,1-2.672,4.372A6.292,6.292,0,0,1,448.584,309.5Zm-4.722-1.237a6.639,6.639,0,0,0,.929.035,3.676,3.676,0,0,0,3.466-2.295c.1-.219.191-.447.273-.663a7.9,7.9,0,0,0,.277-.912,6.54,6.54,0,0,1-3.225,3.218A9.18,9.18,0,0,1,443.862,308.266Zm4.317-.364h.016c.114.006.228.009.339.009a4.582,4.582,0,0,0,4.282-2.538,4.687,4.687,0,0,0-.375-5.258l-.018-.022-.064-.08-.07.042a4.315,4.315,0,0,0-1.613,1.7A7.17,7.17,0,0,0,450,303.7l-.025.116a12.728,12.728,0,0,1-.506,1.883c-.085.223-.185.481-.3.731A5.463,5.463,0,0,1,448.178,307.9Z" transform="translate(-441.329 -297.102)"/>
            <path id="Path_31" data-name="Path 31" d="M457.2,286.175a1.459,1.459,0,0,1-1.142.39,5.379,5.379,0,0,0-4.575,8.66c.289.4.309.391.738.134a5.129,5.129,0,0,0,2.313-3.131c.207-.725.36-1.465.547-2.2a6.923,6.923,0,0,1,.534-1.409,4.141,4.141,0,0,1,3.613-2.438,7.075,7.075,0,0,1,3.713.785h-.492a7.936,7.936,0,0,0-4.252,1.191,5.778,5.778,0,0,0-2.369,2.787c-.246.6-.453,1.211-.7,1.807a5.723,5.723,0,0,1-3.44,3.144c-.329.127-.458-.053-.611-.259a5.79,5.79,0,0,1-.614-6.484A5.86,5.86,0,0,1,456.309,286a3.847,3.847,0,0,1,.887.173" transform="translate(-448.502 -285.975)"/>
            <path id="Path_31_-_Outline" data-name="Path 31 - Outline" class="cls-10" d="M451.482,296.444a.992.992,0,0,1-.806-.493l-.007-.009a6.8,6.8,0,0,1-1.4-3.407,6.517,6.517,0,0,1,.743-3.6,6.342,6.342,0,0,1,5.717-3.458c.208,0,.419.01.628.029a4.339,4.339,0,0,1,1,.2l.628.206a5.3,5.3,0,0,1,1.211-.218c.167-.011.336-.017.5-.017a7.7,7.7,0,0,1,3.469.854l-.224.947h-.5a7.474,7.474,0,0,0-3.98,1.117,5.3,5.3,0,0,0-2.169,2.552c-.113.274-.22.56-.324.836-.12.32-.245.651-.381.976a6.179,6.179,0,0,1-3.72,3.417A1.042,1.042,0,0,1,451.482,296.444Zm4.295-9.384a4.612,4.612,0,0,0-4.369,2.617,4.662,4.662,0,0,0,.474,5.252l.024.033.054-.032a4.608,4.608,0,0,0,2.089-2.839c.124-.432.231-.884.334-1.32.067-.282.136-.574.21-.862a7.448,7.448,0,0,1,.572-1.51,5.469,5.469,0,0,1,.928-1.331l-.058,0C455.948,287.061,455.861,287.06,455.776,287.06Zm3.916-.39c-.144,0-.29,0-.435.015a3.643,3.643,0,0,0-3.2,2.165,6.445,6.445,0,0,0-.5,1.307c-.029.113-.058.228-.086.343a6.272,6.272,0,0,1,2.456-2.763,8.426,8.426,0,0,1,2.461-1.028A6.33,6.33,0,0,0,459.692,286.67Z" transform="translate(-448.502 -285.975)"/>
          </g>
        </g>
        <g id="Group_37" data-name="Group 37">
          <g id="Group_36" data-name="Group 36" class="cls-11">
            <path id="Path_32" data-name="Path 32" d="M544.33,310.2a3.5,3.5,0,0,1,3.368-3.787,3.4,3.4,0,0,1,3.435,3.606,3.492,3.492,0,0,1-3.359,3.788,3.413,3.413,0,0,1-3.444-3.607m5.572-.162c0-2.147-.839-3.339-2.213-3.339-1.355,0-2.118,1.3-2.118,3.482,0,2.147.849,3.33,2.233,3.33,1.364,0,2.1-1.288,2.1-3.473" transform="translate(-529.184 -303.405)"/>
            <path id="Path_32_-_Outline" data-name="Path 32 - Outline" class="cls-10" d="M547.774,314.3A3.9,3.9,0,0,1,545,313.189a4.159,4.159,0,0,1-1.172-2.992,4.485,4.485,0,0,1,1.151-3.106,3.7,3.7,0,0,1,2.717-1.182,3.885,3.885,0,0,1,2.772,1.116,4.169,4.169,0,0,1,1.163,2.991,4.5,4.5,0,0,1-1.142,3.105A3.688,3.688,0,0,1,547.774,314.3Zm-.086-7.108c-1.461,0-1.618,2.086-1.618,2.982a3.953,3.953,0,0,0,.51,2.188,1.387,1.387,0,0,0,1.222.642c1.391,0,1.6-1.863,1.6-2.973C549.4,309.182,549.235,307.2,547.688,307.2Zm-2.4,1.145a3.685,3.685,0,0,0-.461,1.857,3.31,3.31,0,0,0,.48,1.788,6.145,6.145,0,0,1-.24-1.807A6.992,6.992,0,0,1,545.291,308.341Zm4.881-.09a6.252,6.252,0,0,1,.23,1.785,7.332,7.332,0,0,1-.193,1.78,3.742,3.742,0,0,0,.424-1.8A3.342,3.342,0,0,0,550.172,308.251Z" transform="translate(-529.184 -303.405)"/>
            <path id="Path_33" data-name="Path 33" d="M593.01,325.276l.487-.076c.01-.305.019-.611.019-1.012v-2.07c0-.41-.019-.8-.028-1.221a4.217,4.217,0,0,0-.5-.133c-.009,0-.009-.172.01-.172.678-.162.84-.219,1.422-.363.019,0,.086.048.086.067l-.01.754h.029a2.956,2.956,0,0,1,1.937-.782c.859,0,1.355.362,1.355,1.431v3.511c.162.029.305.048.5.067.029,0,0,.2-.019.2h-2.013c-.028,0-.009-.2.019-.2l.477-.076c.019-.334.019-.611.019-1.012v-2.242c0-.744-.21-1.088-.906-1.088a2.091,2.091,0,0,0-1.355.468v3.883c.162.029.3.048.5.067a.364.364,0,0,1-.019.2H593c-.029,0-.01-.2.009-.2" transform="translate(-570.685 -315.192)"/>
            <path id="Path_33_-_Outline" data-name="Path 33 - Outline" class="cls-10" d="M598.3,325.976h-2.013a.512.512,0,0,1-.5-.406.673.673,0,0,1-.016-.15.569.569,0,0,1,.455-.638h0l.072-.011c0-.174,0-.356,0-.582v-2.242c0-.588-.1-.588-.406-.588a1.752,1.752,0,0,0-.855.218v3.2l.039,0a.509.509,0,0,1,.456.425.669.669,0,0,1,.009.115c0,.627-.439.659-.527.659H593a.522.522,0,0,1-.515-.562c0-.495.3-.607.447-.632h0l.076-.012c0-.175.007-.365.007-.582v-2.07c0-.26-.008-.512-.016-.777l0-.062-.128-.031h0a.514.514,0,0,1-.385-.547,1.129,1.129,0,0,1,.007-.133.515.515,0,0,1,.392-.461h0c.371-.089.579-.144.8-.2.174-.046.355-.094.618-.159l.059-.014h.061a.629.629,0,0,1,.558.4,3.447,3.447,0,0,1,1.484-.365,1.693,1.693,0,0,1,1.855,1.931v3.076l.046,0h0a.518.518,0,0,1,.462.542C598.827,325.8,598.541,325.976,598.3,325.976Zm-1.007-1h.029V321.7c0-.44-.085-.678-.26-.8a1.947,1.947,0,0,1,.239,1.051v2.242C597.3,324.49,597.3,324.729,597.29,324.976Zm-3.286,0h.033v-3.427h-.03c.005.186.009.376.009.569v2.07C594.016,324.494,594.01,324.744,594,324.976Z" transform="translate(-570.685 -315.192)"/>
            <path id="Path_34" data-name="Path 34" d="M632.919,325.768a2.337,2.337,0,0,1-2.4-2.6c0-1.641.925-2.738,2.337-2.738,1.365,0,2.109.887,2.071,2.4h-3.387c.029,1.488.735,2.242,1.67,2.242a2.133,2.133,0,0,0,1.679-.639c.048-.048.057.115.029.191a2.239,2.239,0,0,1-1.994,1.145m-1.384-3.225,2.3-.086c0-1.183-.344-1.755-1.011-1.755s-1.231.563-1.288,1.841" transform="translate(-602.696 -315.359)"/>
            <path id="Path_34_-_Outline" data-name="Path 34 - Outline" class="cls-10" d="M632.919,326.268a2.79,2.79,0,0,1-2.138-.88,3.243,3.243,0,0,1-.766-2.225,3.5,3.5,0,0,1,.758-2.308,2.676,2.676,0,0,1,2.079-.93,2.5,2.5,0,0,1,1.844.7,2.98,2.98,0,0,1,.726,2.214l-.012.487h-3.33c.092.564.362,1.242,1.125,1.242a1.645,1.645,0,0,0,1.335-.5.516.516,0,0,1,.784.077.763.763,0,0,1,.058.651l-.018.042A2.744,2.744,0,0,1,632.919,326.268Zm-1.9-3.205q0,.05,0,.1a2.136,2.136,0,0,0,.649,1.686l-.025-.031a3.08,3.08,0,0,1-.594-1.758Zm3.317-.733h.068a2.313,2.313,0,0,0-.1-.449C634.32,322.018,634.33,322.168,634.334,322.329Zm-1.51-1.127c-.142,0-.555.068-.722.82l1.21-.045C633.226,321.2,632.932,321.2,632.824,321.2Z" transform="translate(-602.696 -315.359)"/>
            <path id="Path_35" data-name="Path 35" d="M662.819,313.4a2.919,2.919,0,0,1,.009-1.078h.048a2.632,2.632,0,0,0,1.9,1.107c.907,0,1.555-.315,1.555-1.307,0-.878-.83-1.25-1.67-1.679-.9-.506-1.793-1.021-1.793-2.165a1.936,1.936,0,0,1,2.185-1.87,3.875,3.875,0,0,1,1.651.277,2.592,2.592,0,0,1,.019,1.011h-.048a1.9,1.9,0,0,0-1.631-.925c-.563,0-1.345.229-1.345,1.04,0,.782.763,1.173,1.679,1.67.945.515,1.88,1.021,1.88,2.213,0,1.336-.983,2.109-2.481,2.109a4.762,4.762,0,0,1-1.956-.4" transform="translate(-630.211 -303.405)"/>
            <path id="Path_35_-_Outline" data-name="Path 35 - Outline" class="cls-10" d="M664.775,314.3a5.255,5.255,0,0,1-2.2-.463l-.007,0c-.273-.157-.294-.444-.3-.9a3.435,3.435,0,0,1,.052-.708.518.518,0,0,1,.5-.406h.283l.15.182a2.21,2.21,0,0,0,1.516.925c.971,0,1.052-.4,1.052-.807,0-.474-.384-.719-1.262-1.165l-.154-.079c-.912-.514-2.048-1.155-2.048-2.6a2.431,2.431,0,0,1,2.685-2.37,4.406,4.406,0,0,1,1.845.316l.009,0c.345.153.351.544.356.888a4.04,4.04,0,0,1-.036.652.515.515,0,0,1-.5.429h-.3l-.15-.209a1.4,1.4,0,0,0-1.225-.716c-.254,0-.845.053-.845.54,0,.442.485.726,1.343,1.19l.086.047c.949.518,2.13,1.162,2.13,2.647C667.756,313.28,666.586,314.3,664.775,314.3Zm.122-4.3.125.064c.7.358,1.487.756,1.731,1.532-.044-.782-.647-1.151-1.606-1.674l-.083-.045a4.024,4.024,0,0,1-1.666-1.3C663.531,309.189,664.074,309.54,664.9,310Z" transform="translate(-630.211 -303.405)"/>
            <path id="Path_36" data-name="Path 36" d="M693.766,318.771v-3.482h-.773c-.019,0-.038-.134,0-.162.382-.277,1.517-1.24,1.613-1.345.038-.038.21,0,.21.048,0,.067-.029.954-.029,1.03h1.508c.048,0-.01.43-.057.43h-1.46v3.406c0,.506.182.839.725.839a1.643,1.643,0,0,0,.84-.267c.019-.01.038.172.019.21a1.543,1.543,0,0,1-1.317.611c-.964,0-1.279-.515-1.279-1.316" transform="translate(-655.968 -309.679)"/>
            <path id="Path_36_-_Outline" data-name="Path 36 - Outline" class="cls-10" d="M695.044,320.588a1.622,1.622,0,0,1-1.779-1.816v-2.982h-.273a.51.51,0,0,1-.487-.361.626.626,0,0,1,.189-.7l0,0c.362-.263,1.423-1.166,1.541-1.282l.011-.011a.564.564,0,0,1,.413-.163.6.6,0,0,1,.652.563c0,.036,0,.174-.014.5v.028h.994a.516.516,0,0,1,.5.413.749.749,0,0,1,.016.162,1.768,1.768,0,0,1-.034.32c-.092.465-.378.535-.541.535h-.96v2.906c0,.339.066.339.225.339a1.121,1.121,0,0,0,.579-.194l.035-.019.107-.054h.121a.5.5,0,0,1,.43.241.831.831,0,0,1,.035.692l-.014.027A2.031,2.031,0,0,1,695.044,320.588Zm-.835-5.8h.056v3.982a.952.952,0,0,0,.149.625,1.66,1.66,0,0,1-.138-.7v-3.906h.011c0-.019,0-.041,0-.068Z" transform="translate(-655.968 -309.679)"/>
            <path id="Path_37" data-name="Path 37" d="M716.83,325.286l.486-.076c.01-.305.01-.62.01-1.021v-2.061c0-.41-.01-.8-.019-1.221a3.192,3.192,0,0,0-.5-.134c-.01,0-.019-.172.009-.181.677-.162.84-.21,1.422-.363.009,0,.086.048.086.067l-.019.973h.047a1.719,1.719,0,0,1,1.336-1.021.735.735,0,0,1,.477.115,6.21,6.21,0,0,1-.019.849h-.038a1.413,1.413,0,0,0-.62-.143,1.338,1.338,0,0,0-1.136.515v3.625c.163.029.392.048.592.076a.361.361,0,0,1-.019.2h-2.118a.361.361,0,0,1,.019-.2" transform="translate(-676.295 -315.192)"/>
            <path id="Path_37_-_Outline" data-name="Path 37 - Outline" class="cls-10" d="M718.929,325.986h-2.118a.509.509,0,0,1-.5-.425.668.668,0,0,1-.009-.116c0-.513.294-.628.449-.652h0l.072-.011c0-.18,0-.373,0-.592v-2.061c0-.284,0-.559-.011-.843l-.1-.022h0a.5.5,0,0,1-.4-.426.593.593,0,0,1,.351-.72l.04-.011c.523-.125.732-.181,1.079-.272l.333-.088.062-.016h.065a.646.646,0,0,1,.524.325,1.641,1.641,0,0,1,.926-.306,1.217,1.217,0,0,1,.777.215l.028.021.025.024c.173.172.167.355.152.8-.016.488-.03.52-.061.6l-.128.309H720l-.1-.047a1.024,1.024,0,0,0-1.045.105v3l.157.02a.51.51,0,0,1,.434.422.672.672,0,0,1,.009.115C719.456,325.954,719.017,325.986,718.929,325.986Zm-1.107-1h.034v-3.217h-.032c0,.118,0,.238,0,.359v2.061C717.826,324.491,717.826,324.746,717.822,324.986Z" transform="translate(-676.295 -315.192)"/>
            <path id="Path_38" data-name="Path 38" d="M742.237,325.768a2.337,2.337,0,0,1-2.4-2.6c0-1.641.926-2.738,2.338-2.738,1.364,0,2.108.887,2.07,2.4h-3.387c.029,1.488.735,2.242,1.669,2.242a2.133,2.133,0,0,0,1.679-.639c.048-.048.057.115.029.191a2.239,2.239,0,0,1-1.994,1.145m-1.384-3.225,2.3-.086c0-1.183-.344-1.755-1.011-1.755s-1.231.563-1.288,1.841" transform="translate(-695.94 -315.359)"/>
            <path id="Path_38_-_Outline" data-name="Path 38 - Outline" class="cls-10" d="M742.237,326.268a2.791,2.791,0,0,1-2.138-.88,3.244,3.244,0,0,1-.766-2.225,3.5,3.5,0,0,1,.758-2.308,2.676,2.676,0,0,1,2.079-.93,2.5,2.5,0,0,1,1.844.7,2.98,2.98,0,0,1,.726,2.214l-.012.487H741.4c.092.564.362,1.242,1.125,1.242a1.644,1.644,0,0,0,1.334-.5.516.516,0,0,1,.785.077.762.762,0,0,1,.057.651l-.017.041A2.744,2.744,0,0,1,742.237,326.268Zm-1.9-3.205q0,.05,0,.1a2.135,2.135,0,0,0,.649,1.687l-.025-.031a3.08,3.08,0,0,1-.594-1.758Zm3.318-.733h.068a2.316,2.316,0,0,0-.1-.448C743.638,322.019,743.648,322.168,743.652,322.329Zm-1.51-1.127c-.142,0-.555.068-.722.82l1.21-.045C742.545,321.2,742.25,321.2,742.142,321.2Z" transform="translate(-695.94 -315.359)"/>
          </g>
        </g>
        <g id="Group_39" data-name="Group 39">
          <g id="Group_38" data-name="Group 38" class="cls-9">
            <path id="Path_39" data-name="Path 39" d="M772.1,324.528a1.184,1.184,0,0,1,.992-1.193c.267-.1.83-.258,1.326-.477.286-.124.477-.258.477-.544v-.429c0-.849-.277-1.107-1.049-1.107a2.031,2.031,0,0,0-1.4.678h-.057a2.85,2.85,0,0,1,0-.754,4.245,4.245,0,0,1,1.536-.277c1.164,0,2,.277,2,1.355v3.043c0,.41.133.477.41.477a.659.659,0,0,0,.258-.048c.019-.01.029.191.01.21a1.1,1.1,0,0,1-.8.305.757.757,0,0,1-.84-.735c-.009-.01-.009-.143-.019-.153h-.029a1.682,1.682,0,0,1-1.508.887,1.175,1.175,0,0,1-1.307-1.24m2.8.067v-1.689a.935.935,0,0,1-.353.22c-.267.114-.649.229-.811.305a.907.907,0,0,0-.63.954c0,.582.267.878.763.878a1.16,1.16,0,0,0,1.031-.668" transform="translate(-723.466 -315.359)"/>
            <path id="Path_39_-_Outline" data-name="Path 39 - Outline" class="cls-10" d="M775.806,326.268a1.325,1.325,0,0,1-1.045-.443,2.3,2.3,0,0,1-1.35.443,1.663,1.663,0,0,1-1.807-1.74,1.687,1.687,0,0,1,1.332-1.666c.079-.028.175-.059.286-.1.28-.091.662-.216,1-.365a.918.918,0,0,0,.179-.094v-.422c0-.4-.072-.5-.094-.523s-.118-.083-.456-.083a1.524,1.524,0,0,0-1.035.517l-.148.161h-.276a.509.509,0,0,1-.493-.4,2.678,2.678,0,0,1-.032-.516c0-.327,0-.636.3-.787l.018-.008a4.733,4.733,0,0,1,1.742-.321,3.352,3.352,0,0,1,1.687.339,1.631,1.631,0,0,1,.817,1.515v3l.05-.025h.119a.506.506,0,0,1,.467.315.8.8,0,0,1-.085.727A1.611,1.611,0,0,1,775.806,326.268Zm-3.2-1.821q0,.039,0,.081a.892.892,0,0,0,.073.381A1.776,1.776,0,0,1,772.606,324.447Zm1.793-.73-.137.048c-.12.042-.257.09-.314.117l-.01,0c-.231.1-.333.162-.333.5,0,.378.116.378.263.378a.624.624,0,0,0,.531-.3Zm1,.949a.515.515,0,0,1,.031.082V321.78a1.066,1.066,0,0,0-.031-.3Z" transform="translate(-723.466 -315.359)"/>
            <path id="Path_40" data-name="Path 40" d="M806.428,325.477h-2.013a.361.361,0,0,1,.019-.2l.487-.076c.009-.305.009-.611.009-1.012v-2.07c0-.41-.009-.8-.019-1.221a4.723,4.723,0,0,0-.5-.133c-.01,0-.019-.172.01-.172.677-.162.84-.22,1.422-.363.009,0,.086.048.086.067l-.019.754h.038a2.746,2.746,0,0,1,1.86-.782c.658,0,1.069.21,1.221.782h.038a2.841,2.841,0,0,1,1.9-.782c.859,0,1.3.362,1.3,1.431v3.511c.162.029.3.048.5.067.029,0,0,.2-.019.2h-2a.361.361,0,0,1,.019-.2l.477-.076c.01-.334.01-.611.01-1.012v-2.242c0-.744-.181-1.078-.859-1.078a1.874,1.874,0,0,0-1.3.477c.01.1.019.229.019.353v3.511c.162.029.3.048.487.067.029,0,0,.2-.019.2h-1.994a.365.365,0,0,1,.019-.2l.477-.076c.01-.334.01-.611.01-1.012v-2.242c0-.744-.181-1.078-.859-1.078a1.85,1.85,0,0,0-1.269.458v3.883a4.451,4.451,0,0,0,.477.067c.029,0,0,.2-.01.2" transform="translate(-751.019 -315.193)"/>
            <path id="Path_40_-_Outline" data-name="Path 40 - Outline" class="cls-10" d="M812.745,325.977h-2a.509.509,0,0,1-.5-.426.667.667,0,0,1-.009-.116c0-.512.293-.627.448-.652h0l.064-.01c0-.175,0-.358,0-.584v-2.242a.991.991,0,0,0-.078-.522.45.45,0,0,0-.281-.056,1.542,1.542,0,0,0-.781.2c0,.041,0,.083,0,.126v3.077l.036,0h0a.518.518,0,0,1,.462.542c0,.484-.286.656-.531.656h-1.994a.508.508,0,0,1-.5-.427.67.67,0,0,1-.009-.115c0-.512.293-.627.448-.652h0l.064-.01c0-.175,0-.358,0-.584v-2.242a.99.99,0,0,0-.078-.522.45.45,0,0,0-.281-.056,1.466,1.466,0,0,0-.769.2v3.205l.018,0a.511.511,0,0,1,.456.4.644.644,0,0,1,.016.147c0,.621-.435.653-.522.653h-2.013a.509.509,0,0,1-.5-.425.67.67,0,0,1-.009-.116c0-.514.295-.628.45-.652h0l.072-.011c0-.177,0-.367,0-.582v-2.07c0-.282,0-.558-.011-.839l-.126-.03v0a.52.52,0,0,1-.389-.569.82.82,0,0,1,.013-.151.521.521,0,0,1,.407-.426c.358-.086.564-.141.781-.2.175-.047.356-.095.62-.16l.059-.014h.061a.639.639,0,0,1,.554.391,3.2,3.2,0,0,1,1.411-.352,1.723,1.723,0,0,1,1.4.536,3.4,3.4,0,0,1,1.762-.536c1.193,0,1.8.65,1.8,1.931v3.076l.044,0h0a.518.518,0,0,1,.465.542C813.276,325.806,812.99,325.977,812.745,325.977Zm-1-1h.025V321.7c0-.471-.081-.71-.262-.827a1.95,1.95,0,0,1,.241,1.075v2.242C811.746,324.492,811.746,324.73,811.742,324.977Zm-3.158,0h.025V321.7c0-.107-.009-.221-.017-.308l-.007-.079-.035-.133a.455.455,0,0,0-.205-.31,1.945,1.945,0,0,1,.244,1.079v2.242C808.588,324.492,808.588,324.73,808.584,324.977Zm-3.158,0h.034V321.55h-.036c0,.188.005.376.005.569v2.07C805.43,324.487,805.43,324.739,805.426,324.977Z" transform="translate(-751.019 -315.193)"/>
          </g>
        </g>
      </g>
    </g>
    <g id="Group_1222" data-name="Group 1222">
      <g id="image_black_24dp" transform="translate(148.479 881.328)">
        <path id="Path_8604" data-name="Path 8604" class="cls-12" d="M147.782,131.7V19.087A16.134,16.134,0,0,0,131.7,3H19.087A16.134,16.134,0,0,0,3,19.087V131.7a16.134,16.134,0,0,0,16.087,16.087H131.7A16.134,16.134,0,0,0,147.782,131.7ZM47.239,87.456l20.109,24.211L95.5,75.391l36.2,48.261H19.087Z" transform="translate(21.13 21.13)"/>
      </g>
    </g>
    <g id="selected">
      <g class="cls-15" transform="matrix(1, 0, 0, 1, 96.5, 869)">
        <path id="Path_8606-2" data-name="Path 8606" class="cls-13" d="M34.907,29.746A1.324,1.324,0,0,0,35.7,30a1.521,1.521,0,0,0,.594-.141A1.291,1.291,0,0,0,37,28.728V6.148A2.222,2.222,0,0,0,34.765,4H22.206A2.179,2.179,0,0,0,20,6.148v22.58a1.258,1.258,0,0,0,.707,1.13,1.229,1.229,0,0,0,1.556-.311l6.223-8.026,6.223,8.026A.661.661,0,0,0,34.907,29.746Z" transform="translate(249.5 2)"/>
      </g>
      <path id="Path_8567" data-name="Path 8567" class="cls-14" d="M368.557,297.184a14.073,14.073,0,0,0-3-.81,14.054,14.054,0,0,0-1.7-2.6.587.587,0,0,0-.876,0,14.048,14.048,0,0,0-1.7,2.6,14.065,14.065,0,0,0-3,.81.567.567,0,0,0-.271.833,14.012,14.012,0,0,0,1.951,2.417,13.963,13.963,0,0,0-.156,3.1.567.567,0,0,0,.566.532.579.579,0,0,0,.142-.018,14.006,14.006,0,0,0,2.9-1.107,14.022,14.022,0,0,0,2.9,1.107.567.567,0,0,0,.708-.515,14.031,14.031,0,0,0-.156-3.1,14.022,14.022,0,0,0,1.951-2.417.567.567,0,0,0-.272-.833Zm-2.681,2.639a.566.566,0,0,0-.167.514,12.863,12.863,0,0,1,.215,2.414,12.835,12.835,0,0,1-2.232-.951.572.572,0,0,0-.541,0,12.826,12.826,0,0,1-2.232.951,12.892,12.892,0,0,1,.216-2.414.565.565,0,0,0-.167-.514,12.93,12.93,0,0,1-1.6-1.827,12.914,12.914,0,0,1,2.365-.542.566.566,0,0,0,.438-.318,12.911,12.911,0,0,1,1.246-2.08,12.839,12.839,0,0,1,1.246,2.08.567.567,0,0,0,.437.318,12.88,12.88,0,0,1,2.365.542A12.819,12.819,0,0,1,365.877,299.824Z" transform="translate(11.077 583.933)"/>
    </g>
  </g>
</svg>
