<svg xmlns="http://www.w3.org/2000/svg" xmlns:xlink="http://www.w3.org/1999/xlink" width="154.994" height="29.871" viewBox="0 0 154.994 29.871">
  <defs>
    <style>
      .cls-1, .cls-3 {
        fill: #fff;
      }

      .cls-1 {
        stroke: rgba(0,0,0,0);
      }

      .cls-2 {
        clip-path: url(#clip-path);
      }

      .cls-4 {
        fill: rgba(0,0,0,0);
      }

      .cls-5 {
        filter: url(#Rectangle_22);
      }
    </style>
    <filter id="Rectangle_22" x="-9.5" y="-7.5" width="173.994" height="48.871" filterUnits="userSpaceOnUse">
      <feOffset dy="2" input="SourceAlpha"/>
      <feGaussianBlur stdDeviation="3" result="blur"/>
      <feFlood flood-opacity="0.122"/>
      <feComposite operator="in" in2="blur"/>
      <feComposite in="SourceGraphic"/>
    </filter>
    <clipPath id="clip-path">
      <g class="cls-5" transform="matrix(1, 0, 0, 1, 0, 0)">
        <rect id="Rectangle_22-2" data-name="Rectangle 22" class="cls-1" width="154.994" height="29.871"/>
      </g>
    </clipPath>
  </defs>
  <g id="Group_34" data-name="Group 34" class="cls-2">
    <path id="Path_29" data-name="Path 29" class="cls-3" d="M441.328,313.456a18.839,18.839,0,0,0,8.729,1.883,10.471,10.471,0,0,0,9.8-6.482c.268-.571.5-1.16.722-1.749a32.9,32.9,0,0,0,1.278-4.833,19.494,19.494,0,0,1,1.825-5.214,12.154,12.154,0,0,1,4.507-4.75c1.089-.656,1.147-.642,1.963.387.029.035.058.069.084.106,3.242,4.64,3.736,9.566,1.025,14.532s-7.1,7.285-12.761,7a3.643,3.643,0,0,0-2.653.881c.214.33.507.318.764.363a14.715,14.715,0,0,0,11.448-2.48,14.916,14.916,0,0,0,3.058-21.517c-.768-.954-.767-.952-1.9-.506a14.279,14.279,0,0,0-8.69,8.714c-.352.975-.708,1.949-1.077,2.918a15.185,15.185,0,0,1-7.973,8.6,22.751,22.751,0,0,1-10.138,2.141m21.82-26.98a9.652,9.652,0,0,0-2.226-.435,14.707,14.707,0,0,0-14.69,7.922c-2.869,5.683-2.278,11.161,1.541,16.274.385.516.707.969,1.534.65,3.913-1.515,6.974-3.94,8.633-7.892.629-1.5,1.15-3.035,1.766-4.536a14.5,14.5,0,0,1,5.946-7,19.92,19.92,0,0,1,10.67-2.99h1.234a17.758,17.758,0,0,0-9.319-1.97,10.394,10.394,0,0,0-9.068,6.118,17.376,17.376,0,0,0-1.34,3.535c-.47,1.833-.854,3.692-1.374,5.511a12.872,12.872,0,0,1-5.8,7.857c-1.077.645-1.126.657-1.852-.337-3.347-4.572-3.918-9.489-1.289-14.505,2.653-5.063,7.055-7.441,12.772-7.228a3.663,3.663,0,0,0,2.866-.979" transform="translate(-441.328 -285.975)"/>
    <path id="Path_29_-_Outline" data-name="Path 29 - Outline" class="cls-4" d="M459.535,316.346a17.4,17.4,0,0,1-3.017-.272l-.1-.015a1.271,1.271,0,0,1-.994-.568l-.246-.379.353-.283a4.125,4.125,0,0,1,2.991-.99c.3.015.6.023.887.023a12.248,12.248,0,0,0,11.41-6.764c2.559-4.687,2.224-9.4-1-14.006-.008-.012-.023-.03-.037-.047l-.029-.035a3.5,3.5,0,0,0-.583-.645,3.351,3.351,0,0,0-.729.376,11.722,11.722,0,0,0-4.325,4.559,19.013,19.013,0,0,0-1.777,5.082l-.061.284a31.42,31.42,0,0,1-1.238,4.622c-.207.544-.451,1.175-.737,1.784a10.975,10.975,0,0,1-10.233,6.769c-.2.006-.394.009-.59.009a19.515,19.515,0,0,1-8.369-1.94l.218-.952h.264a22.065,22.065,0,0,0,9.655-2.094,14.686,14.686,0,0,0,7.72-8.331c.38-1,.741-1.987,1.074-2.91a14.7,14.7,0,0,1,3.477-5.527,16.118,16.118,0,0,1,5.5-3.483l.008,0a3.282,3.282,0,0,1,1.126-.321c.552,0,.85.37,1.342.982a15.192,15.192,0,0,1,2.871,5.662,15.415,15.415,0,0,1-6.031,16.577A15.052,15.052,0,0,1,459.535,316.346Zm-2.632-1.221a16.3,16.3,0,0,0,2.632.221,14.07,14.07,0,0,0,8.23-2.654,14.388,14.388,0,0,0,2.956-20.794c-.241-.3-.49-.609-.563-.609a2.258,2.258,0,0,0-.556.172,3.136,3.136,0,0,1,.935.924l.017.021c.025.031.057.069.088.114a14.933,14.933,0,0,1,2.832,7.389,13.633,13.633,0,0,1-1.78,7.667,13.244,13.244,0,0,1-12.287,7.284c-.307,0-.622-.008-.937-.024-.074,0-.147-.006-.218-.006A3,3,0,0,0,456.9,315.125ZM443.7,313.876a17.932,17.932,0,0,0,6.345.964,10.62,10.62,0,0,0,5.632-1.655,10.789,10.789,0,0,0,3.727-4.539c.271-.577.507-1.188.707-1.715a30.67,30.67,0,0,0,1.2-4.476l.061-.284a19.99,19.99,0,0,1,1.874-5.346,12.861,12.861,0,0,1,2.585-3.363,13.456,13.456,0,0,0-1.6,1.346,13.7,13.7,0,0,0-3.239,5.155c-.335.927-.7,1.923-1.08,2.926a15.738,15.738,0,0,1-8.226,8.878A22.535,22.535,0,0,1,443.7,313.876Zm5.111-2.381a1.779,1.779,0,0,1-1.418-.935l-.017-.023A16.317,16.317,0,0,1,444,302.364a15.615,15.615,0,0,1,1.788-8.625,14.881,14.881,0,0,1,5.662-6.09,15.623,15.623,0,0,1,8.012-2.174c.5,0,1.007.023,1.508.069A10.18,10.18,0,0,1,463.3,286l.822.269-.643.578a4.057,4.057,0,0,1-2.938,1.112h0c-.09,0-.184,0-.281-.005-.227-.008-.455-.013-.677-.013a13.227,13.227,0,0,0-6.846,1.73,12.87,12.87,0,0,0-4.787,5.243c-2.487,4.746-2.067,9.449,1.249,13.978a3.759,3.759,0,0,0,.479.582,4.119,4.119,0,0,0,.713-.379,11.8,11.8,0,0,0,3.531-3.224,13.934,13.934,0,0,0,2.05-4.342c.315-1.1.586-2.244.847-3.348.167-.7.34-1.434.523-2.149a17.935,17.935,0,0,1,1.379-3.637,10.907,10.907,0,0,1,9.48-6.391c.4-.027.809-.041,1.209-.041a18.316,18.316,0,0,1,8.368,2.063l-.224.947H476.3a19.5,19.5,0,0,0-10.384,2.916,14.052,14.052,0,0,0-5.746,6.76c-.287.7-.558,1.42-.821,2.118-.3.8-.61,1.62-.947,2.422-1.59,3.787-4.506,6.458-8.914,8.164A1.876,1.876,0,0,1,448.807,311.495Zm10.653-25.02a14.623,14.623,0,0,0-7.5,2.032,13.883,13.883,0,0,0-5.282,5.682c-2.748,5.444-2.245,10.743,1.495,15.75l.017.023c.282.378.417.532.616.532a.923.923,0,0,0,.32-.073l.117-.046a2.825,2.825,0,0,1-.849-.892,14.811,14.811,0,0,1-2.98-7.334,13.629,13.629,0,0,1,1.652-7.7,13.853,13.853,0,0,1,5.163-5.639,14.21,14.21,0,0,1,7.356-1.87c.235,0,.475,0,.715.013.084,0,.166,0,.244,0a3.282,3.282,0,0,0,1.413-.276c-.4-.075-.756-.116-1.08-.145C460.406,286.5,459.929,286.475,459.46,286.475Zm9.953.49c-.377,0-.762.013-1.142.039a10.212,10.212,0,0,0-5.156,1.684,10.877,10.877,0,0,0-3.5,4.161,16.934,16.934,0,0,0-1.3,3.433c-.181.706-.353,1.43-.518,2.131-.264,1.115-.537,2.268-.859,3.393a14.928,14.928,0,0,1-2.2,4.652,12.6,12.6,0,0,1-1.624,1.842,12.748,12.748,0,0,0,4.368-5.5c.33-.784.636-1.6.933-2.387.265-.705.54-1.434.832-2.146a15.033,15.033,0,0,1,6.146-7.231A20.4,20.4,0,0,1,475.208,288,16.725,16.725,0,0,0,469.413,286.965Z" transform="translate(-441.328 -285.975)"/>
    <g id="Group_1222" data-name="Group 1222">
      <path id="Path_30" data-name="Path 30" class="cls-3" d="M441.329,321.687a22.753,22.753,0,0,0,10.137-2.14,15.19,15.19,0,0,0,7.973-8.6c.369-.968.725-1.943,1.077-2.918a14.279,14.279,0,0,1,8.69-8.714c1.139-.447,1.137-.45,1.905.506a14.915,14.915,0,0,1-3.059,21.516,14.713,14.713,0,0,1-11.447,2.48c-.257-.046-.549-.033-.764-.363a3.642,3.642,0,0,1,2.653-.882c5.66.285,10.053-2.043,12.761-7s2.217-9.892-1.024-14.532c-.026-.037-.055-.07-.084-.106-.815-1.029-.873-1.043-1.963-.387a12.155,12.155,0,0,0-4.506,4.75,19.468,19.468,0,0,0-1.825,5.214,32.888,32.888,0,0,1-1.278,4.833c-.224.589-.454,1.178-.721,1.749a10.472,10.472,0,0,1-9.8,6.481,18.827,18.827,0,0,1-8.729-1.883" transform="translate(-441.329 -294.206)"/>
      <path id="Path_30_-_Outline" data-name="Path 30 - Outline" class="cls-4" d="M459.536,324.577a17.4,17.4,0,0,1-3.017-.272l-.1-.015a1.271,1.271,0,0,1-.994-.568l-.247-.379.353-.283a4.115,4.115,0,0,1,2.723-1c.087,0,.178,0,.268.007.3.015.6.023.888.023a12.245,12.245,0,0,0,11.408-6.763c2.558-4.686,2.224-9.4-1-14.006-.007-.01-.021-.027-.035-.044l-.029-.036a3.507,3.507,0,0,0-.585-.647,3.346,3.346,0,0,0-.73.376,11.722,11.722,0,0,0-4.324,4.559,18.73,18.73,0,0,0-1.776,5.082l-.062.289a31.368,31.368,0,0,1-1.238,4.618c-.207.546-.452,1.178-.736,1.784a10.977,10.977,0,0,1-10.233,6.769c-.2.006-.4.009-.592.009a19.5,19.5,0,0,1-8.366-1.94l.218-.952h.261a22.067,22.067,0,0,0,9.657-2.093,14.69,14.69,0,0,0,7.72-8.331c.381-1,.741-1.989,1.074-2.909a14.7,14.7,0,0,1,3.477-5.527,16.115,16.115,0,0,1,5.5-3.483l.009,0a3.28,3.28,0,0,1,1.126-.321c.552,0,.85.37,1.342.982a15.19,15.19,0,0,1,2.871,5.662,15.414,15.414,0,0,1-6.031,16.577A15.051,15.051,0,0,1,459.536,324.577Zm-2.632-1.221a16.293,16.293,0,0,0,2.632.221,14.069,14.069,0,0,0,8.229-2.654,14.387,14.387,0,0,0,2.957-20.794c-.241-.3-.49-.609-.563-.609a2.259,2.259,0,0,0-.556.172,3.145,3.145,0,0,1,.937.926l.019.023c.024.029.053.065.083.107a14.941,14.941,0,0,1,2.833,7.391,13.632,13.632,0,0,1-1.78,7.667,13.241,13.241,0,0,1-12.286,7.284c-.308,0-.623-.008-.939-.024-.074,0-.147-.006-.218-.006A3,3,0,0,0,456.9,323.355ZM443.7,322.107a17.915,17.915,0,0,0,6.346.963,10.618,10.618,0,0,0,5.632-1.655,10.793,10.793,0,0,0,3.727-4.538c.269-.574.506-1.186.706-1.715a30.622,30.622,0,0,0,1.195-4.471l.062-.289a19.966,19.966,0,0,1,1.874-5.346,12.866,12.866,0,0,1,2.583-3.361,13.454,13.454,0,0,0-1.595,1.344,13.705,13.705,0,0,0-3.239,5.156c-.335.925-.7,1.92-1.08,2.926A15.744,15.744,0,0,1,451.68,320,22.531,22.531,0,0,1,443.7,322.107Z" transform="translate(-441.329 -294.206)"/>
      <path id="Path_31" data-name="Path 31" class="cls-3" d="M468.455,286.476a3.663,3.663,0,0,1-2.866.979c-5.717-.213-10.119,2.166-12.772,7.228-2.629,5.016-2.059,9.934,1.289,14.505.727.993.775.982,1.852.337a12.872,12.872,0,0,0,5.8-7.857c.52-1.819.9-3.677,1.374-5.511a17.378,17.378,0,0,1,1.34-3.535,10.394,10.394,0,0,1,9.068-6.118,17.758,17.758,0,0,1,9.319,1.97h-1.234a19.92,19.92,0,0,0-10.67,2.99,14.5,14.5,0,0,0-5.946,7c-.616,1.5-1.138,3.041-1.766,4.536-1.66,3.952-4.721,6.377-8.633,7.892-.827.32-1.149-.134-1.534-.65-3.818-5.113-4.409-10.591-1.541-16.274a14.707,14.707,0,0,1,14.69-7.922,9.652,9.652,0,0,1,2.226.435" transform="translate(-446.635 -285.975)"/>
      <path id="Path_31_-_Outline" data-name="Path 31 - Outline" class="cls-4" d="M454.114,311.495a1.779,1.779,0,0,1-1.418-.935l-.017-.023a16.318,16.318,0,0,1-3.375-8.173,15.615,15.615,0,0,1,1.788-8.625,14.881,14.881,0,0,1,5.662-6.09,15.623,15.623,0,0,1,8.011-2.174c.5,0,1.007.023,1.508.069a10.181,10.181,0,0,1,2.336.458l.822.269-.643.578a4.057,4.057,0,0,1-2.938,1.112c-.09,0-.184,0-.281-.005-.227-.008-.455-.013-.678-.013a13.227,13.227,0,0,0-6.846,1.73,12.87,12.87,0,0,0-4.787,5.243c-2.487,4.746-2.067,9.449,1.249,13.978a3.761,3.761,0,0,0,.479.582,4.118,4.118,0,0,0,.713-.379,11.8,11.8,0,0,0,3.531-3.224,13.933,13.933,0,0,0,2.05-4.342c.315-1.1.586-2.244.847-3.348.167-.7.34-1.434.523-2.149a17.938,17.938,0,0,1,1.379-3.637,10.907,10.907,0,0,1,9.48-6.391c.4-.027.809-.041,1.209-.041a18.315,18.315,0,0,1,8.368,2.063l-.224.947h-1.257a19.5,19.5,0,0,0-10.384,2.916,14.052,14.052,0,0,0-5.746,6.76c-.287.7-.558,1.42-.821,2.118-.3.8-.61,1.62-.947,2.422-1.59,3.787-4.506,6.458-8.914,8.164A1.876,1.876,0,0,1,454.114,311.495Zm10.653-25.02a14.623,14.623,0,0,0-7.5,2.033,13.883,13.883,0,0,0-5.282,5.682c-2.748,5.444-2.245,10.743,1.495,15.75l.017.023c.282.378.416.532.616.532a.923.923,0,0,0,.32-.073l.117-.046a2.825,2.825,0,0,1-.849-.892,14.81,14.81,0,0,1-2.98-7.333,13.628,13.628,0,0,1,1.652-7.7,13.853,13.853,0,0,1,5.163-5.639,14.21,14.21,0,0,1,7.356-1.87c.235,0,.475,0,.715.013.084,0,.166,0,.244,0a3.282,3.282,0,0,0,1.413-.276c-.4-.075-.756-.116-1.08-.145C465.712,286.5,465.236,286.475,464.766,286.475Zm9.953.49c-.377,0-.762.013-1.142.039a10.212,10.212,0,0,0-5.156,1.684,10.878,10.878,0,0,0-3.5,4.161,16.938,16.938,0,0,0-1.3,3.433c-.181.706-.353,1.431-.519,2.131-.264,1.115-.537,2.268-.859,3.393a14.928,14.928,0,0,1-2.2,4.652,12.608,12.608,0,0,1-1.624,1.842,12.749,12.749,0,0,0,4.368-5.5c.33-.784.636-1.6.933-2.387.265-.7.54-1.434.832-2.146a15.032,15.032,0,0,1,6.146-7.231A20.4,20.4,0,0,1,480.514,288,16.726,16.726,0,0,0,474.719,286.965Z" transform="translate(-446.635 -285.975)"/>
    </g>
  </g>
</svg>
