<svg xmlns="http://www.w3.org/2000/svg" xmlns:xlink="http://www.w3.org/1999/xlink" width="297" height="369" viewBox="0 0 297 369"><defs><filter id="a" x="42" y="218.049" width="80.756" height="30.902" filterUnits="userSpaceOnUse"><feOffset dy="2" input="SourceAlpha"/><feGaussianBlur stdDeviation="3" result="b"/><feFlood flood-opacity="0.122"/><feComposite operator="in" in2="b"/><feComposite in="SourceGraphic"/></filter><filter id="c" x="42" y="218.049" width="80.758" height="30.902" filterUnits="userSpaceOnUse"><feOffset dy="2" input="SourceAlpha"/><feGaussianBlur stdDeviation="3" result="d"/><feFlood flood-opacity="0.122"/><feComposite operator="in" in2="d"/><feComposite in="SourceGraphic"/></filter><filter id="e" x="42" y="218.049" width="80.756" height="30.902" filterUnits="userSpaceOnUse"><feOffset dy="2" input="SourceAlpha"/><feGaussianBlur stdDeviation="3" result="f"/><feFlood flood-opacity="0.122"/><feComposite operator="in" in2="f"/><feComposite in="SourceGraphic"/></filter><filter id="g" x="0" y="0" width="297" height="369" filterUnits="userSpaceOnUse"><feOffset dy="2" input="SourceAlpha"/><feGaussianBlur stdDeviation="1.5" result="h"/><feFlood flood-opacity="0.2"/><feComposite operator="in" in2="h"/><feComposite in="SourceGraphic"/></filter><clipPath id="i"><g transform="matrix(1, 0, 0, 1, 0, 0)" filter="url(#a)"><rect width="61.756" height="11.902" stroke="rgba(0,0,0,0)" stroke-width="1"/></g></clipPath><filter id="j" x="42.287" y="218.04" width="32.872" height="30.912" filterUnits="userSpaceOnUse"><feOffset dy="2" input="SourceAlpha"/><feGaussianBlur stdDeviation="3" result="k"/><feFlood flood-opacity="0.122"/><feComposite operator="in" in2="k"/><feComposite in="SourceGraphic"/></filter><filter id="l" x="42.287" y="220.017" width="31.892" height="28.935" filterUnits="userSpaceOnUse"><feOffset dy="2" input="SourceAlpha"/><feGaussianBlur stdDeviation="3" result="m"/><feFlood flood-opacity="0.122"/><feComposite operator="in" in2="m"/><feComposite in="SourceGraphic"/></filter><filter id="n" x="43.225" y="218.04" width="31.934" height="28.975" filterUnits="userSpaceOnUse"><feOffset dy="2" input="SourceAlpha"/><feGaussianBlur stdDeviation="3" result="o"/><feFlood flood-opacity="0.122"/><feComposite operator="in" in2="o"/><feComposite in="SourceGraphic"/></filter><clipPath id="p"><g transform="matrix(1, 0, 0, 1, 0, 0)" filter="url(#c)"><rect width="61.758" height="11.902" stroke="rgba(0,0,0,0)" stroke-width="1"/></g></clipPath><filter id="q" x="57.146" y="221.054" width="25.803" height="26.394" filterUnits="userSpaceOnUse"><feOffset dy="2" input="SourceAlpha"/><feGaussianBlur stdDeviation="3" result="r"/><feFlood flood-opacity="0.122"/><feComposite operator="in" in2="r"/><feComposite in="SourceGraphic"/></filter><filter id="s" x="64.3" y="223.086" width="24.342" height="24.247" filterUnits="userSpaceOnUse"><feOffset dy="2" input="SourceAlpha"/><feGaussianBlur stdDeviation="3" result="t"/><feFlood flood-opacity="0.122"/><feComposite operator="in" in2="t"/><feComposite in="SourceGraphic"/></filter><filter id="u" x="69.819" y="223.115" width="23.415" height="24.343" filterUnits="userSpaceOnUse"><feOffset dy="2" input="SourceAlpha"/><feGaussianBlur stdDeviation="3" result="v"/><feFlood flood-opacity="0.122"/><feComposite operator="in" in2="v"/><feComposite in="SourceGraphic"/></filter><filter id="w" x="74.562" y="221.054" width="23.482" height="26.394" filterUnits="userSpaceOnUse"><feOffset dy="2" input="SourceAlpha"/><feGaussianBlur stdDeviation="3" result="x"/><feFlood flood-opacity="0.122"/><feComposite operator="in" in2="x"/><feComposite in="SourceGraphic"/></filter><filter id="y" x="79.002" y="222.134" width="22.398" height="25.324" filterUnits="userSpaceOnUse"><feOffset dy="2" input="SourceAlpha"/><feGaussianBlur stdDeviation="3" result="z"/><feFlood flood-opacity="0.122"/><feComposite operator="in" in2="z"/><feComposite in="SourceGraphic"/></filter><filter id="aa" x="82.507" y="223.086" width="22.375" height="24.257" filterUnits="userSpaceOnUse"><feOffset dy="2" input="SourceAlpha"/><feGaussianBlur stdDeviation="3" result="ab"/><feFlood flood-opacity="0.122"/><feComposite operator="in" in2="ab"/><feComposite in="SourceGraphic"/></filter><filter id="ac" x="85.893" y="223.115" width="23.415" height="24.343" filterUnits="userSpaceOnUse"><feOffset dy="2" input="SourceAlpha"/><feGaussianBlur stdDeviation="3" result="ad"/><feFlood flood-opacity="0.122"/><feComposite operator="in" in2="ad"/><feComposite in="SourceGraphic"/></filter><filter id="af" x="90.637" y="223.115" width="23.513" height="24.343" filterUnits="userSpaceOnUse"><feOffset dy="2" input="SourceAlpha"/><feGaussianBlur stdDeviation="3" result="ag"/><feFlood flood-opacity="0.122"/><feComposite operator="in" in2="ag"/><feComposite in="SourceGraphic"/></filter><filter id="ah" x="95.387" y="223.086" width="27.37" height="24.247" filterUnits="userSpaceOnUse"><feOffset dy="2" input="SourceAlpha"/><feGaussianBlur stdDeviation="3" result="ai"/><feFlood flood-opacity="0.122"/><feComposite operator="in" in2="ai"/><feComposite in="SourceGraphic"/></filter></defs><g transform="translate(-1003.5 -870.79)"><g transform="matrix(1, 0, 0, 1, 1003.5, 870.79)" filter="url(#g)"><rect width="288" height="360" rx="2" transform="translate(4.5 2.5)" fill="#fff"/></g><path d="M2,0H286a2,2,0,0,1,2,2V16a0,0,0,0,1,0,0H0a0,0,0,0,1,0,0V2A2,2,0,0,1,2,0Z" transform="translate(1008 873.29)" fill="#3f68c6"/><text transform="translate(1032.5 1106.29)" fill="#999" font-size="13" font-family="ProximaNova-Regular, Proxima Nova" letter-spacing="-0.01em"><tspan x="0" y="0">by:</tspan></text><text transform="translate(1032 1087.29)" fill="#333" font-size="20" font-family="ProximaNova-Regular, Proxima Nova" letter-spacing="-0.01em"><tspan x="0" y="0">Solution Title</tspan></text><text transform="translate(1032.5 1127.29)" fill="#666" font-size="14" font-family="ProximaNova-Regular, Proxima Nova" letter-spacing="-0.01em"><tspan x="0" y="13">Streamline the planning of capital </tspan><tspan x="0" y="30">assets and related impact to </tspan><tspan x="0" y="47">depreciation, maintenance and </tspan><tspan x="0" y="64">insurance across the P&amp;L, Balance </tspan><tspan x="0" y="81">Sheet and Cash Flow Statement.</tspan></text><g transform="translate(938.672 1081.364)" style="isolation:isolate"><g transform="translate(116.328 14.975)"><g clip-path="url(#i)"><g transform="matrix(1, 0, 0, 1, -51.5, -225.55)" filter="url(#j)"><path d="M441.328,296.925a7.506,7.506,0,0,0,3.478.75,4.172,4.172,0,0,0,3.9-2.582c.107-.227.2-.462.288-.7a13.11,13.11,0,0,0,.509-1.926,7.768,7.768,0,0,1,.727-2.078,4.842,4.842,0,0,1,1.8-1.893c.434-.261.457-.256.782.154.011.014.023.027.033.042a5.378,5.378,0,0,1-4.676,8.58,1.452,1.452,0,0,0-1.057.351c.085.132.2.127.3.145a5.863,5.863,0,0,0,4.561-.988,5.943,5.943,0,0,0,1.219-8.573c-.306-.38-.306-.379-.759-.2a5.69,5.69,0,0,0-3.462,3.472c-.14.388-.282.777-.429,1.163a6.051,6.051,0,0,1-3.177,3.428,9.065,9.065,0,0,1-4.039.853m8.694-10.75a3.847,3.847,0,0,0-.887-.173,5.86,5.86,0,0,0-5.853,3.157,5.79,5.79,0,0,0,.614,6.484c.153.206.282.386.611.259a5.723,5.723,0,0,0,3.44-3.144c.25-.6.458-1.209.7-1.807a5.778,5.778,0,0,1,2.369-2.787,7.937,7.937,0,0,1,4.252-1.191h.492a7.075,7.075,0,0,0-3.713-.785,4.141,4.141,0,0,0-3.613,2.438,6.924,6.924,0,0,0-.534,1.409c-.187.73-.34,1.471-.547,2.2a5.129,5.129,0,0,1-2.313,3.131c-.429.257-.448.262-.738-.134a5.379,5.379,0,0,1,4.575-8.66,1.459,1.459,0,0,0,1.142-.39" transform="translate(-389.83 -60.43)" stroke="rgba(0,0,0,0)" stroke-width="1"/></g><g transform="matrix(1, 0, 0, 1, -51.5, -225.55)" filter="url(#l)"><path d="M441.329,308.051a9.066,9.066,0,0,0,4.039-.853,6.052,6.052,0,0,0,3.177-3.428c.147-.386.289-.774.429-1.163a5.689,5.689,0,0,1,3.462-3.472c.454-.178.453-.179.759.2a5.943,5.943,0,0,1-1.219,8.573,5.862,5.862,0,0,1-4.561.988c-.1-.018-.219-.013-.3-.145a1.451,1.451,0,0,1,1.057-.351,5.378,5.378,0,0,0,4.676-8.579c-.01-.015-.022-.028-.033-.042-.325-.41-.348-.416-.782-.154a4.844,4.844,0,0,0-1.8,1.893,7.755,7.755,0,0,0-.727,2.078,13.11,13.11,0,0,1-.509,1.926c-.089.235-.181.47-.287.7a4.173,4.173,0,0,1-3.9,2.582,7.5,7.5,0,0,1-3.478-.75" transform="translate(-389.83 -71.55)" stroke="rgba(0,0,0,0)" stroke-width="1"/></g><g transform="matrix(1, 0, 0, 1, -51.5, -225.55)" filter="url(#n)"><path d="M457.2,286.175a1.459,1.459,0,0,1-1.142.39,5.379,5.379,0,0,0-4.575,8.66c.289.4.309.391.738.134a5.129,5.129,0,0,0,2.313-3.131c.207-.725.36-1.465.547-2.2a6.923,6.923,0,0,1,.534-1.409,4.141,4.141,0,0,1,3.613-2.438,7.075,7.075,0,0,1,3.713.785h-.492a7.936,7.936,0,0,0-4.252,1.191,5.778,5.778,0,0,0-2.369,2.787c-.246.6-.453,1.211-.7,1.807a5.723,5.723,0,0,1-3.44,3.144c-.329.127-.458-.053-.611-.259a5.79,5.79,0,0,1-.614-6.484A5.86,5.86,0,0,1,456.309,286a3.847,3.847,0,0,1,.887.173" transform="translate(-397 -60.43)" stroke="rgba(0,0,0,0)" stroke-width="1"/></g></g><g clip-path="url(#p)"><g transform="matrix(1, 0, 0, 1, -51.5, -225.55)" filter="url(#q)"><path d="M544.33,310.2a3.5,3.5,0,0,1,3.368-3.787,3.4,3.4,0,0,1,3.435,3.606,3.492,3.492,0,0,1-3.359,3.788,3.413,3.413,0,0,1-3.444-3.607m5.572-.162c0-2.147-.839-3.339-2.213-3.339-1.355,0-2.118,1.3-2.118,3.482,0,2.147.849,3.33,2.233,3.33,1.364,0,2.1-1.288,2.1-3.473" transform="translate(-477.68 -77.86)" stroke="rgba(0,0,0,0)" stroke-width="1"/></g><g transform="matrix(1, 0, 0, 1, -51.5, -225.55)" filter="url(#s)"><path d="M593.01,325.276l.487-.076c.01-.305.019-.611.019-1.012v-2.07c0-.41-.019-.8-.028-1.221a4.217,4.217,0,0,0-.5-.133c-.009,0-.009-.172.01-.172.678-.162.84-.219,1.422-.363.019,0,.086.048.086.067l-.01.754h.029a2.956,2.956,0,0,1,1.937-.782c.859,0,1.355.362,1.355,1.431v3.511c.162.029.305.048.5.067.029,0,0,.2-.019.2h-2.013c-.028,0-.009-.2.019-.2l.477-.076c.019-.334.019-.611.019-1.012v-2.242c0-.744-.21-1.088-.906-1.088a2.091,2.091,0,0,0-1.355.468v3.883c.162.029.3.048.5.067a.364.364,0,0,1-.019.2H593c-.029,0-.01-.2.009-.2" transform="translate(-519.18 -89.64)" stroke="rgba(0,0,0,0)" stroke-width="1"/></g><g transform="matrix(1, 0, 0, 1, -51.5, -225.55)" filter="url(#u)"><path d="M632.919,325.768a2.337,2.337,0,0,1-2.4-2.6c0-1.641.925-2.738,2.337-2.738,1.365,0,2.109.887,2.071,2.4h-3.387c.029,1.488.735,2.242,1.67,2.242a2.133,2.133,0,0,0,1.679-.639c.048-.048.057.115.029.191a2.239,2.239,0,0,1-1.994,1.145m-1.384-3.225,2.3-.086c0-1.183-.344-1.755-1.011-1.755s-1.231.563-1.288,1.841" transform="translate(-551.2 -89.81)" stroke="rgba(0,0,0,0)" stroke-width="1"/></g><g transform="matrix(1, 0, 0, 1, -51.5, -225.55)" filter="url(#w)"><path d="M662.819,313.4a2.919,2.919,0,0,1,.009-1.078h.048a2.632,2.632,0,0,0,1.9,1.107c.907,0,1.555-.315,1.555-1.307,0-.878-.83-1.25-1.67-1.679-.9-.506-1.793-1.021-1.793-2.165a1.936,1.936,0,0,1,2.185-1.87,3.875,3.875,0,0,1,1.651.277,2.592,2.592,0,0,1,.019,1.011h-.048a1.9,1.9,0,0,0-1.631-.925c-.563,0-1.345.229-1.345,1.04,0,.782.763,1.173,1.679,1.67.945.515,1.88,1.021,1.88,2.213,0,1.336-.983,2.109-2.481,2.109a4.762,4.762,0,0,1-1.956-.4" transform="translate(-578.71 -77.86)" stroke="rgba(0,0,0,0)" stroke-width="1"/></g><g transform="matrix(1, 0, 0, 1, -51.5, -225.55)" filter="url(#y)"><path d="M693.766,318.771v-3.482h-.773c-.019,0-.038-.134,0-.162.382-.277,1.517-1.24,1.613-1.345.038-.038.21,0,.21.048,0,.067-.029.954-.029,1.03h1.508c.048,0-.01.43-.057.43h-1.46v3.406c0,.506.182.839.725.839a1.643,1.643,0,0,0,.84-.267c.019-.01.038.172.019.21a1.543,1.543,0,0,1-1.317.611c-.964,0-1.279-.515-1.279-1.316" transform="translate(-604.47 -84.13)" stroke="rgba(0,0,0,0)" stroke-width="1"/></g><g transform="matrix(1, 0, 0, 1, -51.5, -225.55)" filter="url(#aa)"><path d="M716.83,325.286l.486-.076c.01-.305.01-.62.01-1.021v-2.061c0-.41-.01-.8-.019-1.221a3.192,3.192,0,0,0-.5-.134c-.01,0-.019-.172.009-.181.677-.162.84-.21,1.422-.363.009,0,.086.048.086.067l-.019.973h.047a1.719,1.719,0,0,1,1.336-1.021.735.735,0,0,1,.477.115,6.21,6.21,0,0,1-.019.849h-.038a1.413,1.413,0,0,0-.62-.143,1.338,1.338,0,0,0-1.136.515v3.625c.163.029.392.048.592.076a.361.361,0,0,1-.019.2h-2.118a.361.361,0,0,1,.019-.2" transform="translate(-624.79 -89.64)" stroke="rgba(0,0,0,0)" stroke-width="1"/></g><g transform="matrix(1, 0, 0, 1, -51.5, -225.55)" filter="url(#ac)"><path d="M742.237,325.768a2.337,2.337,0,0,1-2.4-2.6c0-1.641.926-2.738,2.338-2.738,1.364,0,2.108.887,2.07,2.4h-3.387c.029,1.488.735,2.242,1.669,2.242a2.133,2.133,0,0,0,1.679-.639c.048-.048.057.115.029.191a2.239,2.239,0,0,1-1.994,1.145m-1.384-3.225,2.3-.086c0-1.183-.344-1.755-1.011-1.755s-1.231.563-1.288,1.841" transform="translate(-644.44 -89.81)" stroke="rgba(0,0,0,0)" stroke-width="1"/></g></g><g clip-path="url(#i)"><g transform="matrix(1, 0, 0, 1, -51.5, -225.55)" filter="url(#af)"><path d="M772.1,324.528a1.184,1.184,0,0,1,.992-1.193c.267-.1.83-.258,1.326-.477.286-.124.477-.258.477-.544v-.429c0-.849-.277-1.107-1.049-1.107a2.031,2.031,0,0,0-1.4.678h-.057a2.85,2.85,0,0,1,0-.754,4.245,4.245,0,0,1,1.536-.277c1.164,0,2,.277,2,1.355v3.043c0,.41.133.477.41.477a.659.659,0,0,0,.258-.048c.019-.01.029.191.01.21a1.1,1.1,0,0,1-.8.305.757.757,0,0,1-.84-.735c-.009-.01-.009-.143-.019-.153h-.029a1.682,1.682,0,0,1-1.508.887,1.175,1.175,0,0,1-1.307-1.24m2.8.067v-1.689a.935.935,0,0,1-.353.22c-.267.114-.649.229-.811.305a.907.907,0,0,0-.63.954c0,.582.267.878.763.878a1.16,1.16,0,0,0,1.031-.668" transform="translate(-671.97 -89.81)" stroke="rgba(0,0,0,0)" stroke-width="1"/></g><g transform="matrix(1, 0, 0, 1, -51.5, -225.55)" filter="url(#ah)"><path d="M806.428,325.477h-2.013a.361.361,0,0,1,.019-.2l.487-.076c.009-.305.009-.611.009-1.012v-2.07c0-.41-.009-.8-.019-1.221a4.723,4.723,0,0,0-.5-.133c-.01,0-.019-.172.01-.172.677-.162.84-.22,1.422-.363.009,0,.086.048.086.067l-.019.754h.038a2.746,2.746,0,0,1,1.86-.782c.658,0,1.069.21,1.221.782h.038a2.841,2.841,0,0,1,1.9-.782c.859,0,1.3.362,1.3,1.431v3.511c.162.029.3.048.5.067.029,0,0,.2-.019.2h-2a.361.361,0,0,1,.019-.2l.477-.076c.01-.334.01-.611.01-1.012v-2.242c0-.744-.181-1.078-.859-1.078a1.874,1.874,0,0,0-1.3.477c.01.1.019.229.019.353v3.511c.162.029.3.048.487.067.029,0,0,.2-.019.2h-1.994a.365.365,0,0,1,.019-.2l.477-.076c.01-.334.01-.611.01-1.012v-2.242c0-.744-.181-1.078-.859-1.078a1.85,1.85,0,0,0-1.269.458v3.883a4.451,4.451,0,0,0,.477.067c.029,0,0,.2-.01.2" transform="translate(-699.52 -89.64)" stroke="rgba(0,0,0,0)" stroke-width="1"/></g></g></g></g><g transform="translate(1055.479 881.328)"><path d="M147.782,131.7V19.087A16.134,16.134,0,0,0,131.7,3H19.087A16.134,16.134,0,0,0,3,19.087V131.7a16.134,16.134,0,0,0,16.087,16.087H131.7A16.134,16.134,0,0,0,147.782,131.7ZM47.239,87.456l20.109,24.211L95.5,75.391l36.2,48.261H19.087Z" transform="translate(21.13 21.13)" fill="#416bc3"/></g><g transform="translate(604.5)"><path d="M34.907,29.746A1.324,1.324,0,0,0,35.7,30a1.521,1.521,0,0,0,.594-.141A1.291,1.291,0,0,0,37,28.728V6.148A2.222,2.222,0,0,0,34.765,4H22.206A2.179,2.179,0,0,0,20,6.148v22.58a1.258,1.258,0,0,0,.707,1.13,1.229,1.229,0,0,0,1.556-.311l6.223-8.026,6.223,8.026A.661.661,0,0,0,34.907,29.746Z" transform="translate(648.5 871)" fill="#4867c0" opacity="0.772"/><path d="M28.486,18.91a.989.989,0,0,0-.79.395L22,26.663V6.166c0-.085.085-.169.226-.169H34.749c.141,0,.226.085.226.169v20.5l-5.7-7.359A.989.989,0,0,0,28.486,18.91Z" transform="translate(648.503 871.004)" fill="#fff" opacity="0.772"/></g></g></svg>