<svg xmlns="http://www.w3.org/2000/svg" xmlns:xlink="http://www.w3.org/1999/xlink" width="61.758" height="11.902" viewBox="0 0 61.758 11.902">
  <defs>
    <filter id="Rectangle_22" x="-9.5" y="-7.5" width="80.756" height="30.902" filterUnits="userSpaceOnUse">
      <feOffset dy="2" input="SourceAlpha"/>
      <feGaussianBlur stdDeviation="3" result="blur"/>
      <feFlood flood-opacity="0.122"/>
      <feComposite operator="in" in2="blur"/>
      <feComposite in="SourceGraphic"/>
    </filter>
    <filter id="Rectangle_23" x="-9.5" y="-7.5" width="80.758" height="30.902" filterUnits="userSpaceOnUse">
      <feOffset dy="2" input="SourceAlpha"/>
      <feGaussianBlur stdDeviation="3" result="blur-2"/>
      <feFlood flood-opacity="0.122"/>
      <feComposite operator="in" in2="blur-2"/>
      <feComposite in="SourceGraphic"/>
    </filter>
    <filter id="Rectangle_24" x="-9.5" y="-7.5" width="80.756" height="30.902" filterUnits="userSpaceOnUse">
      <feOffset dy="2" input="SourceAlpha"/>
      <feGaussianBlur stdDeviation="3" result="blur-3"/>
      <feFlood flood-opacity="0.122"/>
      <feComposite operator="in" in2="blur-3"/>
      <feComposite in="SourceGraphic"/>
    </filter>
    <clipPath id="clip-path">
      <g transform="matrix(1, 0, 0, 1, 0, 0)" filter="url(#Rectangle_22)">
        <rect id="Rectangle_22-2" data-name="Rectangle 22" width="61.756" height="11.902" stroke="rgba(0,0,0,0)" stroke-width="1"/>
      </g>
    </clipPath>
    <filter id="Path_29" x="-9.213" y="-7.51" width="32.872" height="30.912" filterUnits="userSpaceOnUse">
      <feOffset dy="2" input="SourceAlpha"/>
      <feGaussianBlur stdDeviation="3" result="blur-4"/>
      <feFlood flood-opacity="0.122"/>
      <feComposite operator="in" in2="blur-4"/>
      <feComposite in="SourceGraphic"/>
    </filter>
    <filter id="Path_30" x="-9.213" y="-5.532" width="31.892" height="28.935" filterUnits="userSpaceOnUse">
      <feOffset dy="2" input="SourceAlpha"/>
      <feGaussianBlur stdDeviation="3" result="blur-5"/>
      <feFlood flood-opacity="0.122"/>
      <feComposite operator="in" in2="blur-5"/>
      <feComposite in="SourceGraphic"/>
    </filter>
    <filter id="Path_31" x="-8.275" y="-7.51" width="31.934" height="28.975" filterUnits="userSpaceOnUse">
      <feOffset dy="2" input="SourceAlpha"/>
      <feGaussianBlur stdDeviation="3" result="blur-6"/>
      <feFlood flood-opacity="0.122"/>
      <feComposite operator="in" in2="blur-6"/>
      <feComposite in="SourceGraphic"/>
    </filter>
    <clipPath id="clip-path-2">
      <g transform="matrix(1, 0, 0, 1, 0, 0)" filter="url(#Rectangle_23)">
        <rect id="Rectangle_23-2" data-name="Rectangle 23" width="61.758" height="11.902" stroke="rgba(0,0,0,0)" stroke-width="1"/>
      </g>
    </clipPath>
    <filter id="Path_32" x="5.646" y="-4.495" width="25.803" height="26.394" filterUnits="userSpaceOnUse">
      <feOffset dy="2" input="SourceAlpha"/>
      <feGaussianBlur stdDeviation="3" result="blur-7"/>
      <feFlood flood-opacity="0.122"/>
      <feComposite operator="in" in2="blur-7"/>
      <feComposite in="SourceGraphic"/>
    </filter>
    <filter id="Path_33" x="12.8" y="-2.463" width="24.342" height="24.247" filterUnits="userSpaceOnUse">
      <feOffset dy="2" input="SourceAlpha"/>
      <feGaussianBlur stdDeviation="3" result="blur-8"/>
      <feFlood flood-opacity="0.122"/>
      <feComposite operator="in" in2="blur-8"/>
      <feComposite in="SourceGraphic"/>
    </filter>
    <filter id="Path_34" x="18.319" y="-2.434" width="23.415" height="24.343" filterUnits="userSpaceOnUse">
      <feOffset dy="2" input="SourceAlpha"/>
      <feGaussianBlur stdDeviation="3" result="blur-9"/>
      <feFlood flood-opacity="0.122"/>
      <feComposite operator="in" in2="blur-9"/>
      <feComposite in="SourceGraphic"/>
    </filter>
    <filter id="Path_35" x="23.062" y="-4.495" width="23.482" height="26.394" filterUnits="userSpaceOnUse">
      <feOffset dy="2" input="SourceAlpha"/>
      <feGaussianBlur stdDeviation="3" result="blur-10"/>
      <feFlood flood-opacity="0.122"/>
      <feComposite operator="in" in2="blur-10"/>
      <feComposite in="SourceGraphic"/>
    </filter>
    <filter id="Path_36" x="27.502" y="-3.416" width="22.398" height="25.324" filterUnits="userSpaceOnUse">
      <feOffset dy="2" input="SourceAlpha"/>
      <feGaussianBlur stdDeviation="3" result="blur-11"/>
      <feFlood flood-opacity="0.122"/>
      <feComposite operator="in" in2="blur-11"/>
      <feComposite in="SourceGraphic"/>
    </filter>
    <filter id="Path_37" x="31.007" y="-2.463" width="22.375" height="24.257" filterUnits="userSpaceOnUse">
      <feOffset dy="2" input="SourceAlpha"/>
      <feGaussianBlur stdDeviation="3" result="blur-12"/>
      <feFlood flood-opacity="0.122"/>
      <feComposite operator="in" in2="blur-12"/>
      <feComposite in="SourceGraphic"/>
    </filter>
    <filter id="Path_38" x="34.393" y="-2.434" width="23.415" height="24.343" filterUnits="userSpaceOnUse">
      <feOffset dy="2" input="SourceAlpha"/>
      <feGaussianBlur stdDeviation="3" result="blur-13"/>
      <feFlood flood-opacity="0.122"/>
      <feComposite operator="in" in2="blur-13"/>
      <feComposite in="SourceGraphic"/>
    </filter>
    <filter id="Path_39" x="39.137" y="-2.434" width="23.513" height="24.343" filterUnits="userSpaceOnUse">
      <feOffset dy="2" input="SourceAlpha"/>
      <feGaussianBlur stdDeviation="3" result="blur-14"/>
      <feFlood flood-opacity="0.122"/>
      <feComposite operator="in" in2="blur-14"/>
      <feComposite in="SourceGraphic"/>
    </filter>
    <filter id="Path_40" x="43.887" y="-2.463" width="27.37" height="24.247" filterUnits="userSpaceOnUse">
      <feOffset dy="2" input="SourceAlpha"/>
      <feGaussianBlur stdDeviation="3" result="blur-15"/>
      <feFlood flood-opacity="0.122"/>
      <feComposite operator="in" in2="blur-15"/>
      <feComposite in="SourceGraphic"/>
    </filter>
  </defs>
  <g id="logo-header" transform="translate(-116.328 -14.975)" style="isolation: isolate">
    <g id="OS-logo-K" transform="translate(116.328 14.975)">
      <g id="Group_35" data-name="Group 35">
        <g id="Group_34" data-name="Group 34" clip-path="url(#clip-path)">
          <g transform="matrix(1, 0, 0, 1, 0, 0)" filter="url(#Path_29)">
            <path id="Path_29-2" data-name="Path 29" d="M441.328,296.925a7.506,7.506,0,0,0,3.478.75,4.172,4.172,0,0,0,3.9-2.582c.107-.227.2-.462.288-.7a13.11,13.11,0,0,0,.509-1.926,7.768,7.768,0,0,1,.727-2.078,4.842,4.842,0,0,1,1.8-1.893c.434-.261.457-.256.782.154.011.014.023.027.033.042a5.378,5.378,0,0,1-4.676,8.58,1.452,1.452,0,0,0-1.057.351c.085.132.2.127.3.145a5.863,5.863,0,0,0,4.561-.988,5.943,5.943,0,0,0,1.219-8.573c-.306-.38-.306-.379-.759-.2a5.69,5.69,0,0,0-3.462,3.472c-.14.388-.282.777-.429,1.163a6.051,6.051,0,0,1-3.177,3.428,9.065,9.065,0,0,1-4.039.853m8.694-10.75a3.847,3.847,0,0,0-.887-.173,5.86,5.86,0,0,0-5.853,3.157,5.79,5.79,0,0,0,.614,6.484c.153.206.282.386.611.259a5.723,5.723,0,0,0,3.44-3.144c.25-.6.458-1.209.7-1.807a5.778,5.778,0,0,1,2.369-2.787,7.937,7.937,0,0,1,4.252-1.191h.492a7.075,7.075,0,0,0-3.713-.785,4.141,4.141,0,0,0-3.613,2.438,6.924,6.924,0,0,0-.534,1.409c-.187.73-.34,1.471-.547,2.2a5.129,5.129,0,0,1-2.313,3.131c-.429.257-.448.262-.738-.134a5.379,5.379,0,0,1,4.575-8.66,1.459,1.459,0,0,0,1.142-.39" transform="translate(-441.33 -285.97)" stroke="rgba(0,0,0,0)" stroke-width="1"/>
          </g>
          <g transform="matrix(1, 0, 0, 1, 0, 0)" filter="url(#Path_30)">
            <path id="Path_30-2" data-name="Path 30" d="M441.329,308.051a9.066,9.066,0,0,0,4.039-.853,6.052,6.052,0,0,0,3.177-3.428c.147-.386.289-.774.429-1.163a5.689,5.689,0,0,1,3.462-3.472c.454-.178.453-.179.759.2a5.943,5.943,0,0,1-1.219,8.573,5.862,5.862,0,0,1-4.561.988c-.1-.018-.219-.013-.3-.145a1.451,1.451,0,0,1,1.057-.351,5.378,5.378,0,0,0,4.676-8.579c-.01-.015-.022-.028-.033-.042-.325-.41-.348-.416-.782-.154a4.844,4.844,0,0,0-1.8,1.893,7.755,7.755,0,0,0-.727,2.078,13.11,13.11,0,0,1-.509,1.926c-.089.235-.181.47-.287.7a4.173,4.173,0,0,1-3.9,2.582,7.5,7.5,0,0,1-3.478-.75" transform="translate(-441.33 -297.1)" stroke="rgba(0,0,0,0)" stroke-width="1"/>
          </g>
          <g transform="matrix(1, 0, 0, 1, 0, 0)" filter="url(#Path_31)">
            <path id="Path_31-2" data-name="Path 31" d="M457.2,286.175a1.459,1.459,0,0,1-1.142.39,5.379,5.379,0,0,0-4.575,8.66c.289.4.309.391.738.134a5.129,5.129,0,0,0,2.313-3.131c.207-.725.36-1.465.547-2.2a6.923,6.923,0,0,1,.534-1.409,4.141,4.141,0,0,1,3.613-2.438,7.075,7.075,0,0,1,3.713.785h-.492a7.936,7.936,0,0,0-4.252,1.191,5.778,5.778,0,0,0-2.369,2.787c-.246.6-.453,1.211-.7,1.807a5.723,5.723,0,0,1-3.44,3.144c-.329.127-.458-.053-.611-.259a5.79,5.79,0,0,1-.614-6.484A5.86,5.86,0,0,1,456.309,286a3.847,3.847,0,0,1,.887.173" transform="translate(-448.5 -285.97)" stroke="rgba(0,0,0,0)" stroke-width="1"/>
          </g>
        </g>
      </g>
      <g id="Group_37" data-name="Group 37">
        <g id="Group_36" data-name="Group 36" clip-path="url(#clip-path-2)">
          <g transform="matrix(1, 0, 0, 1, 0, 0)" filter="url(#Path_32)">
            <path id="Path_32-2" data-name="Path 32" d="M544.33,310.2a3.5,3.5,0,0,1,3.368-3.787,3.4,3.4,0,0,1,3.435,3.606,3.492,3.492,0,0,1-3.359,3.788,3.413,3.413,0,0,1-3.444-3.607m5.572-.162c0-2.147-.839-3.339-2.213-3.339-1.355,0-2.118,1.3-2.118,3.482,0,2.147.849,3.33,2.233,3.33,1.364,0,2.1-1.288,2.1-3.473" transform="translate(-529.18 -303.41)" stroke="rgba(0,0,0,0)" stroke-width="1"/>
          </g>
          <g transform="matrix(1, 0, 0, 1, 0, 0)" filter="url(#Path_33)">
            <path id="Path_33-2" data-name="Path 33" d="M593.01,325.276l.487-.076c.01-.305.019-.611.019-1.012v-2.07c0-.41-.019-.8-.028-1.221a4.217,4.217,0,0,0-.5-.133c-.009,0-.009-.172.01-.172.678-.162.84-.219,1.422-.363.019,0,.086.048.086.067l-.01.754h.029a2.956,2.956,0,0,1,1.937-.782c.859,0,1.355.362,1.355,1.431v3.511c.162.029.305.048.5.067.029,0,0,.2-.019.2h-2.013c-.028,0-.009-.2.019-.2l.477-.076c.019-.334.019-.611.019-1.012v-2.242c0-.744-.21-1.088-.906-1.088a2.091,2.091,0,0,0-1.355.468v3.883c.162.029.3.048.5.067a.364.364,0,0,1-.019.2H593c-.029,0-.01-.2.009-.2" transform="translate(-570.68 -315.19)" stroke="rgba(0,0,0,0)" stroke-width="1"/>
          </g>
          <g transform="matrix(1, 0, 0, 1, 0, 0)" filter="url(#Path_34)">
            <path id="Path_34-2" data-name="Path 34" d="M632.919,325.768a2.337,2.337,0,0,1-2.4-2.6c0-1.641.925-2.738,2.337-2.738,1.365,0,2.109.887,2.071,2.4h-3.387c.029,1.488.735,2.242,1.67,2.242a2.133,2.133,0,0,0,1.679-.639c.048-.048.057.115.029.191a2.239,2.239,0,0,1-1.994,1.145m-1.384-3.225,2.3-.086c0-1.183-.344-1.755-1.011-1.755s-1.231.563-1.288,1.841" transform="translate(-602.7 -315.36)" stroke="rgba(0,0,0,0)" stroke-width="1"/>
          </g>
          <g transform="matrix(1, 0, 0, 1, 0, 0)" filter="url(#Path_35)">
            <path id="Path_35-2" data-name="Path 35" d="M662.819,313.4a2.919,2.919,0,0,1,.009-1.078h.048a2.632,2.632,0,0,0,1.9,1.107c.907,0,1.555-.315,1.555-1.307,0-.878-.83-1.25-1.67-1.679-.9-.506-1.793-1.021-1.793-2.165a1.936,1.936,0,0,1,2.185-1.87,3.875,3.875,0,0,1,1.651.277,2.592,2.592,0,0,1,.019,1.011h-.048a1.9,1.9,0,0,0-1.631-.925c-.563,0-1.345.229-1.345,1.04,0,.782.763,1.173,1.679,1.67.945.515,1.88,1.021,1.88,2.213,0,1.336-.983,2.109-2.481,2.109a4.762,4.762,0,0,1-1.956-.4" transform="translate(-630.21 -303.41)" stroke="rgba(0,0,0,0)" stroke-width="1"/>
          </g>
          <g transform="matrix(1, 0, 0, 1, 0, 0)" filter="url(#Path_36)">
            <path id="Path_36-2" data-name="Path 36" d="M693.766,318.771v-3.482h-.773c-.019,0-.038-.134,0-.162.382-.277,1.517-1.24,1.613-1.345.038-.038.21,0,.21.048,0,.067-.029.954-.029,1.03h1.508c.048,0-.01.43-.057.43h-1.46v3.406c0,.506.182.839.725.839a1.643,1.643,0,0,0,.84-.267c.019-.01.038.172.019.21a1.543,1.543,0,0,1-1.317.611c-.964,0-1.279-.515-1.279-1.316" transform="translate(-655.97 -309.68)" stroke="rgba(0,0,0,0)" stroke-width="1"/>
          </g>
          <g transform="matrix(1, 0, 0, 1, 0, 0)" filter="url(#Path_37)">
            <path id="Path_37-2" data-name="Path 37" d="M716.83,325.286l.486-.076c.01-.305.01-.62.01-1.021v-2.061c0-.41-.01-.8-.019-1.221a3.192,3.192,0,0,0-.5-.134c-.01,0-.019-.172.009-.181.677-.162.84-.21,1.422-.363.009,0,.086.048.086.067l-.019.973h.047a1.719,1.719,0,0,1,1.336-1.021.735.735,0,0,1,.477.115,6.21,6.21,0,0,1-.019.849h-.038a1.413,1.413,0,0,0-.62-.143,1.338,1.338,0,0,0-1.136.515v3.625c.163.029.392.048.592.076a.361.361,0,0,1-.019.2h-2.118a.361.361,0,0,1,.019-.2" transform="translate(-676.29 -315.19)" stroke="rgba(0,0,0,0)" stroke-width="1"/>
          </g>
          <g transform="matrix(1, 0, 0, 1, 0, 0)" filter="url(#Path_38)">
            <path id="Path_38-2" data-name="Path 38" d="M742.237,325.768a2.337,2.337,0,0,1-2.4-2.6c0-1.641.926-2.738,2.338-2.738,1.364,0,2.108.887,2.07,2.4h-3.387c.029,1.488.735,2.242,1.669,2.242a2.133,2.133,0,0,0,1.679-.639c.048-.048.057.115.029.191a2.239,2.239,0,0,1-1.994,1.145m-1.384-3.225,2.3-.086c0-1.183-.344-1.755-1.011-1.755s-1.231.563-1.288,1.841" transform="translate(-695.94 -315.36)" stroke="rgba(0,0,0,0)" stroke-width="1"/>
          </g>
        </g>
      </g>
      <g id="Group_39" data-name="Group 39">
        <g id="Group_38" data-name="Group 38" clip-path="url(#clip-path)">
          <g transform="matrix(1, 0, 0, 1, 0, 0)" filter="url(#Path_39)">
            <path id="Path_39-2" data-name="Path 39" d="M772.1,324.528a1.184,1.184,0,0,1,.992-1.193c.267-.1.83-.258,1.326-.477.286-.124.477-.258.477-.544v-.429c0-.849-.277-1.107-1.049-1.107a2.031,2.031,0,0,0-1.4.678h-.057a2.85,2.85,0,0,1,0-.754,4.245,4.245,0,0,1,1.536-.277c1.164,0,2,.277,2,1.355v3.043c0,.41.133.477.41.477a.659.659,0,0,0,.258-.048c.019-.01.029.191.01.21a1.1,1.1,0,0,1-.8.305.757.757,0,0,1-.84-.735c-.009-.01-.009-.143-.019-.153h-.029a1.682,1.682,0,0,1-1.508.887,1.175,1.175,0,0,1-1.307-1.24m2.8.067v-1.689a.935.935,0,0,1-.353.22c-.267.114-.649.229-.811.305a.907.907,0,0,0-.63.954c0,.582.267.878.763.878a1.16,1.16,0,0,0,1.031-.668" transform="translate(-723.47 -315.36)" stroke="rgba(0,0,0,0)" stroke-width="1"/>
          </g>
          <g transform="matrix(1, 0, 0, 1, 0, 0)" filter="url(#Path_40)">
            <path id="Path_40-2" data-name="Path 40" d="M806.428,325.477h-2.013a.361.361,0,0,1,.019-.2l.487-.076c.009-.305.009-.611.009-1.012v-2.07c0-.41-.009-.8-.019-1.221a4.723,4.723,0,0,0-.5-.133c-.01,0-.019-.172.01-.172.677-.162.84-.22,1.422-.363.009,0,.086.048.086.067l-.019.754h.038a2.746,2.746,0,0,1,1.86-.782c.658,0,1.069.21,1.221.782h.038a2.841,2.841,0,0,1,1.9-.782c.859,0,1.3.362,1.3,1.431v3.511c.162.029.3.048.5.067.029,0,0,.2-.019.2h-2a.361.361,0,0,1,.019-.2l.477-.076c.01-.334.01-.611.01-1.012v-2.242c0-.744-.181-1.078-.859-1.078a1.874,1.874,0,0,0-1.3.477c.01.1.019.229.019.353v3.511c.162.029.3.048.487.067.029,0,0,.2-.019.2h-1.994a.365.365,0,0,1,.019-.2l.477-.076c.01-.334.01-.611.01-1.012v-2.242c0-.744-.181-1.078-.859-1.078a1.85,1.85,0,0,0-1.269.458v3.883a4.451,4.451,0,0,0,.477.067c.029,0,0,.2-.01.2" transform="translate(-751.02 -315.19)" stroke="rgba(0,0,0,0)" stroke-width="1"/>
          </g>
        </g>
      </g>
    </g>
  </g>
</svg>
