<svg xmlns="http://www.w3.org/2000/svg" width="36" height="36" viewBox="0 0 36 36"><defs><style>.a{fill:rgba(249,172,255,0);}</style></defs><g transform="translate(0)"><rect class="a" width="36" height="36"/></g><g transform="translate(0.004 0.995)"><path d="M13.337,15.848H2.5a2.5,2.5,0,0,1-2.5-2.5V2.506A2.5,2.5,0,0,1,2.5,0h10.84a2.5,2.5,0,0,1,2.5,2.5v10.84a2.5,2.5,0,0,1-2.5,2.5ZM3.331,12.512H12.5V3.34H3.331Z"/><path d="M670.5,15.848H659.66a2.5,2.5,0,0,1-2.5-2.5V2.506a2.5,2.5,0,0,1,2.5-2.5H670.5a2.5,2.5,0,0,1,2.5,2.5v10.84a2.5,2.5,0,0,1-2.5,2.5Zm-10.006-3.335h9.172V3.34h-9.172Z" transform="translate(-638.005)"/><path d="M13.337,672.988H2.5a2.5,2.5,0,0,1-2.5-2.5v-10.84a2.5,2.5,0,0,1,2.5-2.5h10.84a2.5,2.5,0,0,1,2.5,2.5v10.84a2.5,2.5,0,0,1-2.5,2.5ZM3.331,669.652H12.5V660.48H3.331Z" transform="translate(0 -637.983)"/><path d="M49.534,53.363a1.1,1.1,0,0,1-1.1-1.1V42.753a1.1,1.1,0,1,1,2.192,0v9.513a1.095,1.095,0,0,1-1.1,1.1Z" transform="translate(-22.666 -20.426)"/><path d="M52.266,50.629H42.753a1.1,1.1,0,0,1,0-2.192h9.513a1.1,1.1,0,1,1,0,2.192Z" transform="translate(-20.434 -22.658)"/></g></svg>