<svg xmlns="http://www.w3.org/2000/svg" width="36" height="36" viewBox="0 0 36 36"><defs><style>.a{fill:rgba(249,172,255,0);}</style></defs><g transform="translate(0)"><rect class="a" width="36" height="36"/></g><path d="M30.455,20.364V7.273A3.282,3.282,0,0,0,27.182,4H4.273A3.282,3.282,0,0,0,1,7.273V20.364a3.282,3.282,0,0,0,3.273,3.273H27.182A3.282,3.282,0,0,0,30.455,20.364Zm-3.273,0H4.273V7.273H27.182ZM15.727,8.909a4.909,4.909,0,1,0,4.909,4.909A4.9,4.9,0,0,0,15.727,8.909ZM37,8.909v18a3.282,3.282,0,0,1-3.273,3.273H5.909V26.909H33.727v-18Z" transform="translate(-1 0.909)"/></svg>