<svg xmlns="http://www.w3.org/2000/svg" width="36" height="36" viewBox="0 0 36 36"><defs><style>.a{fill:rgba(249,172,255,0);}</style></defs><rect class="a" width="36" height="36"/><g transform="translate(-682.041 -873.777)"><path d="M35.488,56.772H21.806a5.248,5.248,0,0,1-5.244-5.244V32.181a5.248,5.248,0,0,1,5.244-5.244H35.488a5.248,5.248,0,0,1,5.244,5.244V51.529a5.248,5.248,0,0,1-5.244,5.244ZM21.806,29.951a2.225,2.225,0,0,0-2.23,2.23V51.529a2.225,2.225,0,0,0,2.23,2.23H35.488a2.225,2.225,0,0,0,2.23-2.23V32.181a2.225,2.225,0,0,0-2.23-2.23Z" transform="translate(674.127 846.84)"/><path d="M34.257,14.563a1.492,1.492,0,0,1,1.507,1.507V33.82a5.659,5.659,0,0,0,5.666,5.666H53.484a1.507,1.507,0,0,1,0,3.014H41.429A8.682,8.682,0,0,1,32.75,33.82V16.07A1.511,1.511,0,0,1,34.257,14.563Z" transform="translate(652.291 867.277)"/></g></svg>