<svg xmlns="http://www.w3.org/2000/svg" width="86" height="40" viewBox="0 0 86 40"><g transform="translate(0 -172)"><g transform="translate(0 172)" fill="#fff" stroke="#e8eef0" stroke-width="1"><rect width="84" height="40" stroke="none"/><rect x="0.5" y="0.5" width="83" height="39" fill="none"/></g><text transform="translate(2 185)" fill="#0e65c0" font-size="12" font-family="ProximaNova-Semibold, Proxima Nova" font-weight="600"><tspan x="-27.51" y="11">One Place</tspan></text><rect width="2" height="38" transform="translate(0 173)" fill="#fff"/><rect width="83" height="1" transform="translate(0 172)" fill="#fff"/><g transform="translate(-32.498 157.157)"><path d="M42.671,39.516a1.038,1.038,0,0,1-.733-.3L37.8,35.088a1.033,1.033,0,0,1,0-1.463l4.14-4.152A1.034,1.034,0,0,1,43.4,30.936L40,34.343,43.4,37.75a1.036,1.036,0,0,1-.745,1.766Z" fill="#0a66c2"/></g></g></svg>