<svg xmlns="http://www.w3.org/2000/svg" width="36" height="36" viewBox="0 0 36 36"><defs><style>.a{fill:rgba(249,172,255,0);}</style></defs><g transform="translate(0 0)"><rect class="a" width="36" height="36"/></g><path d="M34.4,2H5.6A3.611,3.611,0,0,0,2,5.6V38l7.2-7.2H34.4A3.611,3.611,0,0,0,38,27.2V5.6A3.611,3.611,0,0,0,34.4,2Zm0,25.2H9.2L5.6,30.8V5.6H34.4Z" transform="translate(-2 -2)"/><path d="M9.2,14.6H30.8v3.6H9.2Zm14.4,9H9.2V20H23.6Zm7.2-10.8H9.2V9.2H30.8Z" transform="translate(-1 -2)"/></svg>