<svg xmlns="http://www.w3.org/2000/svg" width="36" height="36" viewBox="0 0 36 36"><defs><style>.a{fill:rgba(249,172,255,0);}</style></defs><rect class="a" width="36" height="36"/><path d="M43.787,34.993A1.283,1.283,0,0,0,42.5,36.277v5L33.637,32.41a1.285,1.285,0,0,0-1.817,1.817L40.489,42.9l-4.6,0a1.283,1.283,0,1,0,0,2.567h7.9a1.283,1.283,0,0,0,1.283-1.283v-7.9a1.286,1.286,0,0,0-1.283-1.283Z" transform="translate(-31.251 -31.03)"/><path d="M56.557,45.458h7.9a1.283,1.283,0,1,0,0-2.567h-4.6l8.669-8.669A1.285,1.285,0,1,0,66.7,32.406l-8.866,8.866,0-5a1.283,1.283,0,1,0-2.567,0v7.9a1.286,1.286,0,0,0,1.283,1.283Z" transform="translate(-32.896 -31.03)"/><path d="M43.591,54.688h-7.9a1.283,1.283,0,1,0,0,2.567h4.6l-8.669,8.669a1.285,1.285,0,0,0,0,1.817,1.27,1.27,0,0,0,.908.375,1.293,1.293,0,0,0,.908-.375l8.866-8.866v5a1.283,1.283,0,0,0,2.567,0v-7.9a1.293,1.293,0,0,0-1.287-1.287Z" transform="translate(-31.253 -32.608)"/><path d="M59.659,57.255h4.6a1.283,1.283,0,0,0,0-2.567h-7.9a1.283,1.283,0,0,0-1.283,1.283v7.9a1.283,1.283,0,0,0,2.567,0v-5l8.866,8.866a1.27,1.27,0,0,0,.908.375,1.284,1.284,0,0,0,.908-2.192Z" transform="translate(-32.898 -32.608)"/><rect width="8.93" height="8.93" transform="translate(11.826 18.037) rotate(-45)"/></svg>