<svg xmlns="http://www.w3.org/2000/svg" width="36" height="36" viewBox="0 0 36 36"><defs><style>.a{fill:rgba(249,172,255,0);}.b{opacity:0.52;}</style></defs><g transform="translate(0 0)"><rect class="a" width="36" height="36"/></g><path class="b" d="M9.519,19.395a9.368,9.368,0,0,1-6.73-2.84,9.826,9.826,0,0,1,0-13.714,9.394,9.394,0,0,1,13.461,0,9.826,9.826,0,0,1,0,13.714A9.369,9.369,0,0,1,9.519,19.395ZM9.74,2.255A7.607,7.607,0,0,0,2.214,9.923,7.607,7.607,0,0,0,9.74,17.591a7.607,7.607,0,0,0,7.526-7.668A7.607,7.607,0,0,0,9.74,2.255Z" transform="translate(8.444 8.063)"/><path d="M51.978,13.582h-.064a1.155,1.155,0,0,0-1.145,1.166v12.92a1.165,1.165,0,0,0,1.145,1.165H65.26a1.16,1.16,0,0,0,.83-.356,1.238,1.238,0,0,0,.313-.865,14.822,14.822,0,0,0-4.452-9.96,14.3,14.3,0,0,0-9.973-4.07ZM53.049,26.5V15.961a12.03,12.03,0,0,1,7.279,3.328A12.453,12.453,0,0,1,64.006,26.5Z" transform="translate(-30.404 -13.582)"/><path d="M1.209,15.251H1.145A1.155,1.155,0,0,1,0,14.085V1.165A1.165,1.165,0,0,1,1.145,0H14.491a1.16,1.16,0,0,1,.83.356,1.238,1.238,0,0,1,.313.865,14.822,14.822,0,0,1-4.452,9.96,14.3,14.3,0,0,1-9.973,4.07ZM2.279,2.331V12.873A12.03,12.03,0,0,0,9.558,9.544a12.453,12.453,0,0,0,3.678-7.215Z" transform="translate(20.365 20.748)"/><path d="M14.426,15.251h.064a1.155,1.155,0,0,0,1.145-1.166V1.165A1.165,1.165,0,0,0,14.49,0H1.144a1.16,1.16,0,0,0-.83.356A1.238,1.238,0,0,0,0,1.221a14.822,14.822,0,0,0,4.452,9.96,14.3,14.3,0,0,0,9.973,4.07ZM13.355,2.331V12.873A12.03,12.03,0,0,1,6.076,9.544,12.453,12.453,0,0,1,2.4,2.329Z" transform="translate(0 20.748)"/></svg>