<svg xmlns="http://www.w3.org/2000/svg" xmlns:xlink="http://www.w3.org/1999/xlink" width="36.044" height="36" viewBox="0 0 36.044 36"><defs><style>.a{fill:rgba(249,172,255,0);}.b{fill:#fff;}.c{clip-path:url(#d);}.d{filter:url(#a);}</style><filter id="a"><feOffset dy="3" input="SourceAlpha"/><feGaussianBlur stdDeviation="3" result="b"/><feFlood flood-color="#747474" flood-opacity="0.161" result="c"/><feComposite operator="out" in="SourceGraphic" in2="b"/><feComposite operator="in" in="c"/><feComposite operator="in" in2="SourceGraphic"/></filter><clipPath id="d"><rect width="11.606" height="12.186"/></clipPath></defs><rect class="a" width="36" height="36"/><g transform="translate(-886.918 -313)"><g class="d" transform="matrix(1, 0, 0, 1, 886.92, 313)"><path class="b" d="M18,0c0,6.493-.1,8.177,0,17.161C18.1,26.17,18,28.4,18,36A18,18,0,1,1,18,0Z" transform="translate(18)"/></g><g class="c" transform="translate(911.357 324.856)"><g transform="translate(0.58 0)"><path d="M14.4,21a.4.4,0,0,0-.4.4V32.205a.4.4,0,0,0,.4.4h6a.4.4,0,0,0,.4-.4V21.4a.4.4,0,0,0-.4-.4ZM22,21a.4.4,0,0,0-.4.4V32.205a.4.4,0,0,0,.4.4h6a.4.4,0,0,0,.4-.4V21.4a.4.4,0,0,0-.4-.4Zm-7.2.8H20v2.4H14.8Zm7.6,0h5.2v2.4H22.4ZM14.8,25H17v1.8H14.8Zm3,0H20v1.8H17.8Zm4.6,0h2.2v1.8H22.4Zm3,0h2.2v1.8h-2.2ZM14.8,27.6H17v1.8H14.8Zm3,0H20v1.8H17.8Zm4.6,0h2.2v1.8H22.4Zm3,0h2.2v1.8h-2.2ZM14.8,30.2H17v1.6H14.8Zm3,0H20v1.6H17.8Zm4.6,0h2.2v1.6H22.4Zm3,0h2.2v1.6h-2.2Z" transform="translate(-14 -21)"/></g></g></g></svg>