<svg xmlns="http://www.w3.org/2000/svg" width="36" height="36" viewBox="0 0 36 36"><defs><style>.a{fill:rgba(249,172,255,0);}</style></defs><g transform="translate(0 0)"><rect class="a" width="36" height="36"/><path d="M39.459,47.115a7.64,7.64,0,1,0,9.4-7.43V35.359a8.819,8.819,0,0,0-8.816-8.816H29.019l5.29-5.29-2.491-2.491-8.3,8.3a1.767,1.767,0,0,0,0,2.493l8.3,8.3,2.491-2.491-5.29-5.29H40.046a5.291,5.291,0,0,1,5.29,5.29v4.326a7.642,7.642,0,0,0-5.878,7.43Zm11.755,0A4.115,4.115,0,1,1,47.1,43a4.118,4.118,0,0,1,4.114,4.114Z" transform="translate(-21.003 -18.762)"/></g></svg>