<svg xmlns="http://www.w3.org/2000/svg" width="36" height="36" viewBox="0 0 36 36"><defs><style>.a{fill:rgba(249,172,255,0);}</style></defs><rect class="a" width="36" height="36"/><path d="M51,69A18,18,0,1,1,69,51,18,18,0,0,1,51,69Zm0-4.235A13.765,13.765,0,1,0,37.235,51,13.765,13.765,0,0,0,51,64.765Zm8.471-10.588A3.176,3.176,0,1,1,62.647,51,3.177,3.177,0,0,1,59.471,54.176Zm-8.471,0A3.176,3.176,0,1,1,54.176,51,3.177,3.177,0,0,1,51,54.176Zm-8.471,0A3.176,3.176,0,1,1,45.706,51,3.177,3.177,0,0,1,42.529,54.176Z" transform="translate(-33 -33)"/></svg>