<svg xmlns="http://www.w3.org/2000/svg" width="36" height="36" viewBox="0 0 36 36"><defs><style>.a{fill:rgba(249,172,255,0);}</style></defs><rect class="a" width="36" height="36"/><path d="M23,21.9V43.968a6.388,6.388,0,0,0,6.387,6.387h2.9A4.646,4.646,0,0,0,36.935,55H49.71a4.646,4.646,0,0,0,4.645-4.645V46.871a4.646,4.646,0,0,0-4.645-4.645H36.935a4.645,4.645,0,0,0-4.645,4.645h-2.9a2.9,2.9,0,0,1-2.9-2.9V33.394a6.34,6.34,0,0,0,2.9.7h2.9a4.646,4.646,0,0,0,4.645,4.645H49.71A4.646,4.646,0,0,0,54.355,34.1V30.613a4.646,4.646,0,0,0-4.645-4.645H36.935a4.645,4.645,0,0,0-4.645,4.645h-2.9a2.9,2.9,0,0,1-2.9-2.9V19H23ZM35.774,46.871a1.161,1.161,0,0,1,1.161-1.161H49.71a1.162,1.162,0,0,1,1.161,1.161v3.484a1.162,1.162,0,0,1-1.161,1.161H36.935a1.161,1.161,0,0,1-1.161-1.161Zm0-16.258a1.161,1.161,0,0,1,1.161-1.161H49.71a1.162,1.162,0,0,1,1.161,1.161V34.1a1.162,1.162,0,0,1-1.161,1.161H36.935A1.161,1.161,0,0,1,35.774,34.1Z" transform="translate(-21 -19)"/></svg>